<svg width="27" height="28" viewBox="0 0 27 28" fill="none" 
  xmlns="http://www.w3.org/2000/svg">
  <path fill-rule="evenodd" clip-rule="evenodd" d="M1.16351 9.22186C1.37972 8.98944 1.68285 8.85742 2.00028 8.85742H24.8574C25.1758 8.85742 25.4798 8.99024 25.6961 9.22387C25.9124 9.4575 26.0214 9.77077 25.9969 10.0882L25.0352 22.5502C24.8581 25.353 22.0104 27.1431 19.1431 27.1431H7.71457C6.22515 27.1431 4.81328 26.6871 3.73342 25.9005C2.65688 25.1164 1.85007 23.9501 1.76223 22.5474L0.860404 10.0827C0.837498 9.76615 0.947302 9.45428 1.16351 9.22186ZM3.22881 11.1431L4.04336 22.4014C4.07809 22.972 4.41316 23.5678 5.07917 24.053C5.74368 24.537 6.67767 24.8574 7.71457 24.8574H19.1431C21.3251 24.8574 22.6846 23.5459 22.7543 22.4014L22.7556 22.3829L23.623 11.1431H3.22881Z" fill="currentColor" stroke="currentColor" stroke-width="0.5" stroke-miterlimit="10" stroke-linecap="round" stroke-linejoin="round"/>
  <path fill-rule="evenodd" clip-rule="evenodd" d="M13.4282 3.14314C11.545 3.14314 9.99958 4.6886 9.99958 6.57171V14.5717C9.99958 15.2029 9.48791 15.7146 8.85672 15.7146C8.22554 15.7146 7.71387 15.2029 7.71387 14.5717V6.57171C7.71387 3.42624 10.2827 0.857422 13.4282 0.857422C16.5736 0.857422 19.1424 3.42624 19.1424 6.57171V14.5717C19.1424 15.2029 18.6308 15.7146 17.9996 15.7146C17.3684 15.7146 16.8567 15.2029 16.8567 14.5717V6.57171C16.8567 4.6886 15.3113 3.14314 13.4282 3.14314Z" fill="currentColor" stroke="currentColor" stroke-width="0.5" stroke-miterlimit="10" stroke-linecap="round"/>
</svg>
