<svg width="24" height="27" viewBox="0 0 24 27" fill="none" xmlns="http://www.w3.org/2000/svg">
<path d="M4.14844 26.8281C4.94531 26.8281 5.44922 26.4297 6.43359 25.5273L11.4961 20.7812C11.707 20.582 11.8477 20.5234 11.9883 20.5234C12.1406 20.5234 12.293 20.5703 12.5039 20.7812L17.9062 25.8789C18.5273 26.4414 19.0312 26.8281 19.8398 26.8281C20.9766 26.8281 21.9375 26.1016 21.9375 24.5664V4.46875C21.9375 1.77344 20.4609 0.285156 17.7773 0.285156H6.21094C3.52734 0.285156 2.05078 1.77344 2.05078 4.46875V24.5664C2.05078 26.1016 3.01172 26.8281 4.14844 26.8281ZM5.46094 21.9531C5.32031 22.082 5.19141 22.0117 5.19141 21.8359V4.83203C5.19141 3.90625 5.63672 3.42578 6.60938 3.42578H17.3789C18.3516 3.42578 18.7969 3.90625 18.7969 4.83203V21.8359C18.7969 22.0117 18.668 22.082 18.5273 21.9531L13.3594 17.2773C12.9258 16.8906 12.4805 16.6562 11.9883 16.6562C11.5078 16.6562 11.0742 16.8672 10.6172 17.2773L5.46094 21.9531Z" fill="currentColor"/>
</svg>
