<svg width="32" height="32" viewBox="0 0 32 32" fill="none" 
  xmlns="http://www.w3.org/2000/svg">
  <path d="M22.9333 32H17.6C17.28 32 17.0667 31.7867 17.0667 31.4667L16 15.4667L14.9333 31.4667C14.9333 31.7867 14.72 32 14.4 32H9.06667C8.96001 32 8.74667 31.8933 8.64001 31.7867C8.53334 31.68 8.53334 31.5733 8.53334 31.4667L9.60001 4.79999V3.19999C9.60001 3.09332 9.70667 2.87999 9.70667 2.77332C9.70667 2.66666 9.92001 2.66666 10.1333 2.66666H21.8667C22.1867 2.66666 22.4 2.87999 22.4 3.19999V4.58666L23.4667 31.4667C23.4667 31.5733 23.4667 31.7867 23.36 31.8933C23.2533 31.8933 23.04 32 22.9333 32ZM18.1333 30.9333H22.4L21.3333 3.73332H10.6667V4.79999L9.60001 30.9333H13.8667L14.9333 15.4667L15.4667 9.59999C15.4667 9.27999 15.68 9.06666 16 9.06666C16.32 9.06666 16.5333 9.27999 16.5333 9.59999L17.0667 15.4667L18.1333 30.9333Z" fill="currentColor"/>
  <path d="M10.1333 8.53333C9.81334 8.53333 9.60001 8.32 9.60001 8C9.60001 7.68 9.81334 7.46667 10.1333 7.46667C11.6267 7.46667 11.7333 5.65333 11.7333 4.8V0.533333C11.7333 0.213333 11.9467 0 12.2667 0C12.5867 0 12.8 0.213333 12.8 0.533333V4.8C12.8 7.14667 11.84 8.53333 10.1333 8.53333Z" fill="currentColor"/>
  <path d="M21.8667 8.53333C20.16 8.53333 19.2 7.14667 19.2 4.8V0.533333C19.2 0.213333 19.4133 0 19.7333 0C20.0533 0 20.2667 0.213333 20.2667 0.533333V4.8C20.2667 5.65333 20.3733 7.46667 21.8667 7.46667C22.1867 7.46667 22.4 7.68 22.4 8C22.4 8.32 22.1867 8.53333 21.8667 8.53333Z" fill="currentColor"/>
  <path d="M21.8667 3.73333C21.5467 3.73333 21.3333 3.52 21.3333 3.2V1.06667H10.6667V3.2C10.6667 3.52 10.4533 3.73333 10.1333 3.73333C9.81334 3.73333 9.60001 3.52 9.60001 3.2V0.533333C9.60001 0.426667 9.70667 0.213333 9.70667 0.106667C9.70667 0 10.0267 0 10.1333 0H21.8667C22.1867 0 22.4 0.213333 22.4 0.533333V3.2C22.4 3.52 22.1867 3.73333 21.8667 3.73333Z" fill="currentColor"/>
  <path d="M16 10.1333C15.8933 10.1333 15.7867 10.1333 15.68 10.0267C15.4667 9.81332 15.36 9.49332 15.5733 9.27999C16.32 8.31999 16.2133 5.11999 16 3.30666C16 2.98666 16.2133 2.77332 16.4267 2.66666C16.7467 2.66666 16.96 2.87999 17.0667 3.09332C17.1733 3.62666 17.7067 8.31999 16.4267 9.91999C16.32 10.0267 16.1067 10.1333 16 10.1333Z" fill="currentColor"/>
</svg>
