<svg width="32" height="32" viewBox="0 0 32 32" fill="none" 
  xmlns="http://www.w3.org/2000/svg">
  <path d="M8.53332 22.4H5.33332C5.01332 22.4 4.79999 22.1867 4.79999 21.8667C4.79999 18.6667 6.07999 11.7333 6.93332 7.14667C7.14665 6.40001 7.25332 5.65334 7.35999 5.01334C7.57332 3.62667 8.63999 2.66667 10.0267 2.45334L12.8 2.02667C13.12 2.02667 13.3333 2.24001 13.44 2.45334C13.44 2.77334 13.2267 2.98667 13.0133 3.09334L10.24 3.41334C9.27999 3.62667 8.63999 4.26667 8.42665 5.22667C8.31999 5.76001 8.21332 6.50667 7.99999 7.36001C7.14665 11.6267 5.97332 18.0267 5.86665 21.3333H8.10665L10.1333 8.96C10.24 8.64 10.4533 8.53334 10.7733 8.53334C11.0933 8.53334 11.3067 8.85334 11.2 9.17334L9.06665 21.9733C9.06665 22.1867 8.74665 22.4 8.53332 22.4Z" fill="currentColor"/>
  <path d="M16 32C12.9067 32 7.57332 30.4 7.35999 30.4C7.14665 30.2933 6.93332 30.08 6.93332 29.8667L7.99999 21.8667C7.99999 21.5467 8.31999 21.3333 8.63999 21.44C8.95999 21.44 9.17332 21.76 9.06665 22.08L8.10665 29.6533C9.38665 29.8667 13.5467 30.9333 16 30.9333C18.4533 30.9333 22.6133 29.8667 23.8933 29.44L22.9333 21.8667C22.9333 21.5467 23.1467 21.3333 23.36 21.2267C23.68 21.2267 23.8933 21.44 24 21.6533L25.0667 29.6533C25.0667 29.8667 24.96 30.1867 24.64 30.1867C24.4267 30.4 19.0933 32 16 32Z" fill="currentColor"/>
  <path d="M26.6666 22.4H23.4666C23.1466 22.4 22.9333 22.1867 22.9333 21.8667L21.8666 9.06666C21.8666 8.85333 22.08 8.53333 22.4 8.53333C22.72 8.53333 22.9333 8.74666 22.9333 9.06666L24 21.3333H26.1333C26.0266 17.28 24.8533 8.64 24.1066 4.90666C23.8933 4.05333 23.2533 3.30666 22.2933 3.2H19.7333C19.4133 3.2 19.2 2.98666 19.2 2.66666C19.2 2.34666 19.4133 2.13333 19.7333 2.13333H22.4C23.7866 2.34666 24.96 3.41333 25.1733 4.69333C25.92 8.64 27.2 18.0267 27.2 21.8667C27.2 22.1867 26.9866 22.4 26.6666 22.4Z" fill="currentColor"/>
  <path d="M18.6666 24C18.4533 24 18.24 23.7867 18.1333 23.5733C18.0266 23.2533 18.24 23.04 18.56 22.9333L21.2266 22.4C21.5466 22.2933 21.76 22.5067 21.8666 22.8267C21.9733 23.1467 21.76 23.36 21.44 23.4667L18.6666 24C18.7733 24 18.6666 24 18.6666 24Z" fill="currentColor"/>
  <path d="M16 10.6667C15.8933 10.6667 15.8933 10.6667 15.7867 10.6667L15.68 10.56C15.68 10.56 15.68 10.56 15.5733 10.4533L11.3067 5.12C11.2 4.90667 11.2 4.69333 11.3067 4.48C14.1867 0 14.6133 0 14.9333 0H17.6C17.92 0 18.3467 0 21.76 4.48C21.9733 4.69333 21.8667 5.01333 21.76 5.22667L16.4267 10.56C16.4267 10.56 16.4267 10.56 16.32 10.6667C16.32 10.6667 16.2133 10.6667 16.2133 10.7733C16.1067 10.6667 16.1067 10.6667 16 10.6667ZM14.72 1.49333C14.6133 2.13333 15.2533 5.22667 16.1067 8.32C17.0667 5.22667 17.92 2.13333 17.8133 1.49333C17.8133 1.38667 17.7067 1.38667 17.7067 1.28C17.6 1.17333 17.6 1.06667 17.4933 1.06667H15.04C15.04 1.17333 14.9333 1.28 14.72 1.49333C14.72 1.38667 14.72 1.49333 14.72 1.49333ZM18.7733 2.45333C18.56 3.52 18.1333 5.22667 17.1733 8.21333L20.5867 4.8C20.0533 3.94667 19.3067 3.09333 18.7733 2.45333ZM12.3733 4.8L14.8267 7.89333C14.1867 5.44 13.8667 3.84 13.76 2.88C13.3333 3.41333 12.8 4.05333 12.3733 4.8Z" fill="currentColor"/>
  <path d="M14.9333 31.4667C14.6133 31.4667 14.4 31.1467 14.4 30.9333L15.4667 10.1333C15.4667 9.81334 15.68 9.60001 16 9.60001C16.32 9.60001 16.5333 9.92001 16.5333 10.1333L15.4667 30.9333C15.4667 31.2533 15.2533 31.4667 14.9333 31.4667Z" fill="currentColor"/>
  <path d="M12.2667 24C12.16 24 12.16 24 12.0533 24L10.4533 23.4667C10.1333 23.36 10.0267 23.04 10.1333 22.8267C10.24 22.5067 10.56 22.4 10.7733 22.5067L12.3733 23.04C12.6933 23.1467 12.8 23.4667 12.6933 23.68C12.6933 23.8933 12.48 24 12.2667 24Z" fill="currentColor"/>
  <path d="M17.0667 14.9333C17.3612 14.9333 17.6 14.6946 17.6 14.4C17.6 14.1055 17.3612 13.8667 17.0667 13.8667C16.7721 13.8667 16.5333 14.1055 16.5333 14.4C16.5333 14.6946 16.7721 14.9333 17.0667 14.9333Z" fill="currentColor"/>
  <path d="M17.0667 18.1333C17.3612 18.1333 17.6 17.8946 17.6 17.6C17.6 17.3055 17.3612 17.0667 17.0667 17.0667C16.7721 17.0667 16.5333 17.3055 16.5333 17.6C16.5333 17.8946 16.7721 18.1333 17.0667 18.1333Z" fill="currentColor"/>
</svg>
