<svg width="32" height="32" viewBox="0 0 32 32" fill="none" 
  xmlns="http://www.w3.org/2000/svg">
  <path d="M17.6 20.8H11.2C10.88 20.8 10.6667 20.5867 10.6667 20.2667V13.8667C10.6667 13.5467 10.88 13.3333 11.2 13.3333H17.6C17.92 13.3333 18.1333 13.5467 18.1333 13.8667V20.2667C18.1333 20.5867 17.92 20.8 17.6 20.8ZM11.7333 19.7333H17.0667V14.4H11.7333V19.7333Z" fill="currentColor"/>
  <path d="M17.6 17.6H14.4C14.08 17.6 13.8667 17.3867 13.8667 17.0667C13.8667 16.7467 14.08 16.5333 14.4 16.5333H17.6C17.92 16.5333 18.1333 16.7467 18.1333 17.0667C18.1333 17.3867 17.92 17.6 17.6 17.6Z" fill="currentColor"/>
  <path d="M11.2 18.6667C1.92 18.1333 0 17.28 0 16V13.3333C0 13.0133 0.213333 12.8 0.533333 12.8C0.853333 12.8 1.06667 13.0133 1.06667 13.3333V16C1.17333 16.2133 2.24 17.0667 11.2 17.6C11.52 17.6 11.7333 17.92 11.7333 18.1333C11.7333 18.4533 11.52 18.6667 11.2 18.6667Z" fill="currentColor"/>
  <path d="M26.56 18.56C26.3467 18.56 26.0267 18.3467 26.0267 18.1333C26.0267 17.8133 26.24 17.6 26.4533 17.4933C28.9067 17.1733 30.9333 16.4267 30.9333 16V13.3333C30.9333 13.0133 31.1467 12.8 31.4667 12.8C31.7867 12.8 32 13.0133 32 13.3333V16C32 17.6 28.2667 18.3467 26.56 18.56Z" fill="currentColor"/>
  <path d="M27.2 21.8667C27.0933 21.8667 27.0933 21.8667 26.9867 21.8667C26.88 21.8667 20.48 19.7333 18.1333 19.7333C17.8133 19.7333 17.6 19.52 17.6 19.2C17.6 18.88 17.8133 18.6667 18.1333 18.6667C20.5867 18.6667 26.24 20.48 27.2 20.8L28.5867 20.48L27.9467 19.0933C26.7733 18.6667 21.0133 16.5333 18.24 16.5333C17.92 16.5333 17.7067 16.32 17.7067 16C17.7067 15.68 17.92 15.4667 18.24 15.4667C26.7733 15.2533 30.8267 13.9733 31.04 13.3333C30.8267 12.5867 25.3867 11.2 16 11.2C6.61333 11.2 1.38667 12.5867 1.17333 13.3333C1.28 13.8667 4.58667 15.04 11.3067 15.4667C11.6267 15.4667 11.84 15.7867 11.84 16C11.84 16.32 11.6267 16.5333 11.3067 16.5333C9.28 16.4267 0 15.7867 0 13.3333C0 10.1333 15.2533 10.1333 15.8933 10.1333C21.44 10.1333 32 10.7733 32 13.3333C32 15.1467 26.88 16 22.72 16.32C25.6 17.0667 28.2667 18.1333 28.48 18.1333C28.5867 18.1333 28.6933 18.24 28.8 18.3467L29.8667 20.48C29.9733 20.5867 29.9733 20.8 29.8667 20.9067C29.76 21.0133 29.6533 21.12 29.5467 21.2267L27.4133 21.76C27.3067 21.8667 27.2 21.8667 27.2 21.8667Z" fill="currentColor"/>
</svg>
