<svg width="32" height="32" viewBox="0 0 32 32" fill="none" 
  xmlns="http://www.w3.org/2000/svg">
  <path d="M16 32C10.56 32 7.14666 31.2533 5.86666 29.6533C5.22666 28.9067 5.33333 28.2667 5.33333 28.16V28.0533C5.43999 27.9467 10.6667 17.4933 10.6667 13.8667C10.6667 12.5867 10.24 11.9467 9.81333 11.2C9.06666 10.0267 8.31999 8.85334 9.06666 5.76001C9.17333 5.54668 9.38666 5.33334 9.59999 5.33334C11.9467 5.33334 14.8267 7.04001 16 8.64001C17.1733 7.04001 20.0533 5.33334 22.4 5.33334C22.6133 5.33334 22.8267 5.54668 22.9333 5.76001C23.7867 8.85334 23.04 10.0267 22.2933 11.2C21.76 11.9467 21.3333 12.5867 21.3333 13.8667C21.3333 17.4933 26.56 28.48 26.6667 28.5867V28.6933C26.6667 28.8 26.7733 29.2267 26.3467 29.8667C25.1733 31.2533 21.6533 32 16 32ZM6.39999 28.3733C6.39999 28.48 6.50666 28.6933 6.71999 29.0133C7.35999 29.76 9.38666 30.9333 16 30.9333C23.2533 30.9333 25.0667 29.6533 25.4933 29.2267C25.6 29.12 25.6 29.0133 25.6 29.0133C25.0667 27.7333 20.2667 17.6 20.2667 13.8667C20.2667 12.2667 20.8 11.4133 21.3333 10.56C21.9733 9.60001 22.5067 8.74668 21.9733 6.40001C19.4133 6.61334 16.5333 8.96001 16.5333 10.1333C16.5333 10.4533 16.32 10.6667 16 10.6667C15.68 10.6667 15.4667 10.4533 15.4667 10.1333C15.4667 8.96001 12.5867 6.61334 10.0267 6.40001C9.49333 8.74668 10.0267 9.60001 10.6667 10.56C11.2 11.3067 11.7333 12.2667 11.7333 13.8667C11.7333 17.6 6.93333 27.2 6.39999 28.3733Z" fill="currentColor"/>
  <path d="M16 17.0667C13.0133 17.0667 10.9867 15.68 10.88 15.68C10.6667 15.4667 10.56 15.1467 10.7733 14.9333C10.9867 14.72 11.3067 14.6133 11.52 14.8267C11.52 14.8267 13.44 16.1067 16 16.1067C18.56 16.1067 20.48 14.6133 20.48 14.6133C20.6933 14.4 21.0133 14.5067 21.2267 14.72C21.44 14.9333 21.3333 15.2533 21.12 15.4667C21.0133 15.4667 18.9867 17.0667 16 17.0667Z" fill="currentColor"/>
  <path d="M11.2 6.4C10.88 6.4 10.6667 6.18667 10.6667 5.86667V0.533333C10.6667 0.213333 10.88 0 11.2 0C11.52 0 11.7333 0.213333 11.7333 0.533333V5.86667C11.7333 6.18667 11.52 6.4 11.2 6.4Z" fill="currentColor"/>
  <path d="M20.8 6.4C20.48 6.4 20.2667 6.18667 20.2667 5.86667V0.533333C20.2667 0.213333 20.48 0 20.8 0C21.12 0 21.3333 0.213333 21.3333 0.533333V5.86667C21.3333 6.18667 21.12 6.4 20.8 6.4Z" fill="currentColor"/>
</svg>
