<svg width="32" height="32" viewBox="0 0 32 32" fill="none" 
  xmlns="http://www.w3.org/2000/svg">
  <g clip-path="url(#clip0)">
    <path d="M25.0667 16C24.7467 16 24.5333 15.7867 24.5333 15.4667C24.5333 15.1467 24.7467 14.9333 25.0667 14.9333C26.9867 14.9333 29.0133 14.2933 29.8667 14.08C29.5467 10.4533 28.6933 4.69333 27.4133 3.62667C25.92 2.45333 22.5067 1.49333 21.2267 1.17333C20.6933 2.77333 18.24 4.26667 16 4.26667C13.76 4.26667 11.3067 2.77333 10.7733 1.17333C9.49333 1.49333 6.18667 2.45333 4.58667 3.62667C3.30667 4.69333 2.45333 10.3467 2.13333 14.08C2.98667 14.2933 5.01333 14.9333 6.93333 14.9333C7.25333 14.9333 7.46667 15.1467 7.46667 15.4667C7.46667 15.7867 7.25333 16 6.93333 16C4.26667 16 1.49333 14.9333 1.38667 14.9333C1.17333 14.8267 1.06667 14.6133 1.06667 14.4C1.17333 13.44 1.70667 4.48 3.94667 2.77333C6.08 1.06667 10.88 0 11.0933 0C11.2 0 11.4133 0 11.52 0.106667C11.6267 0.213333 11.7333 0.426667 11.7333 0.533333C11.7333 1.49333 13.76 3.2 16 3.2C18.24 3.2 20.2667 1.49333 20.2667 0.533333C20.2667 0.32 20.3733 0.213333 20.48 0.106667C20.5867 0 20.8 0 20.9067 0C21.12 0 25.92 1.06667 28.0533 2.77333C30.1867 4.48 30.8267 13.3333 30.9333 14.4C30.9333 14.6133 30.8267 14.8267 30.6133 14.9333C30.5067 14.9333 27.7333 16 25.0667 16Z" fill="currentColor"/>
    <path d="M16 32C9.81333 32 6.82667 30.9333 6.72 30.9333C6.50667 30.8267 6.4 30.6133 6.4 30.4V11.2C6.4 9.38668 6.08 7.89335 5.44 7.36001C5.33333 7.14668 5.33333 6.72001 5.44 6.50668C5.54667 6.29335 5.97333 6.29335 6.18667 6.50668C7.25333 7.57335 7.36 9.92001 7.36 11.2V29.9733C8.32 30.1867 11.0933 30.9333 15.8933 30.9333C20.8 30.9333 23.5733 29.8667 24.4267 29.5467V11.2C24.4267 9.92001 24.5333 7.57335 25.6 6.50668C25.8133 6.29335 26.1333 6.29335 26.3467 6.50668C26.56 6.72001 26.56 7.04001 26.3467 7.25335C25.92 7.89335 25.6 9.38668 25.6 11.2V29.8667C25.6 30.08 25.4933 30.1867 25.28 30.2933C25.1733 30.4 22.1867 32 16 32Z" fill="currentColor"/>
    <path d="M16 1.6C14.8267 1.6 11.3067 1.06667 11.0933 1.06667C10.88 1.06667 10.6667 0.746667 10.6667 0.426667C10.6667 0.213333 10.9867 0 11.3067 0C11.3067 0 14.9333 0.533333 16 0.533333C17.0667 0.533333 20.6933 0 20.6933 0C21.0133 0 21.3333 0.213333 21.3333 0.426667C21.3333 0.746667 21.12 1.06667 20.9067 1.06667C20.6933 1.06667 17.1733 1.6 16 1.6Z" fill="currentColor"/>
  </g>
  <defs>
    <clipPath id="clip0">
      <rect width="32" height="32" fill="white"/>
    </clipPath>
  </defs>
</svg>
