<svg width="32" height="32" viewBox="0 0 32 32" fill="none" 
  xmlns="http://www.w3.org/2000/svg">
  <path d="M9.06666 6.4C8.85333 6.4 8.53333 6.18667 8.53333 5.97333C8.32 4.48 8.64 3.2 9.49333 2.13333C10.6667 0.746667 12.8 0 15.4667 0C15.7867 0 16 0.213333 16 0.533333C16 0.853333 15.7867 1.06667 15.4667 1.06667C13.12 1.06667 11.3067 1.70667 10.3467 2.88C9.6 3.62667 9.38666 4.69333 9.6 5.76C9.6 6.08 9.49333 6.29333 9.06666 6.4C9.17333 6.4 9.06666 6.4 9.06666 6.4Z" fill="currentColor"/>
  <path d="M22.9333 6.4C22.9333 6.4 22.8267 6.4 22.9333 6.4C22.5067 6.29333 22.4 6.08 22.4 5.76C22.5067 4.90667 22.2933 4.05333 21.6533 3.30667C20.48 1.92 18.1333 1.06667 15.4667 1.06667C15.1467 1.06667 14.9333 0.853333 14.9333 0.533333C14.9333 0.213333 15.1467 0 15.4667 0C18.4533 0 21.12 0.96 22.5067 2.56C23.36 3.52 23.68 4.69333 23.4667 5.86667C23.36 6.18667 23.1467 6.4 22.9333 6.4Z" fill="currentColor"/>
  <path d="M6.93334 17.0666C6.72 17.0666 6.50667 16.96 6.4 16.7466L3.41334 9.38664C3.30667 9.06664 3.41334 8.85331 3.73334 8.63998C4.05334 8.53331 4.26667 8.63997 4.48 8.95997L7.46667 16.32C7.57334 16.64 7.46667 16.8533 7.14667 17.0666C7.04 17.0666 7.04 17.0666 6.93334 17.0666Z" fill="currentColor"/>
  <path d="M31.4667 32H27.2C26.9867 32 26.6667 31.7867 26.6667 31.5733L25.3867 22.72L25.0667 29.8667C25.0667 30.08 24.96 30.1867 24.8533 30.2933C24.7467 30.4 22.08 32 16 32C10.0267 32 6.93333 30.9333 6.72 30.9333C6.50667 30.8267 6.4 30.6133 6.4 30.4V24L5.33333 31.4667C5.33333 31.7867 5.01333 32 4.8 32H0.533333C0.426667 32 0.213333 31.8933 0.106667 31.7867C0 31.68 0 31.5733 0 31.36L2.24 9.92001C2.34667 8.85334 2.98667 7.78668 4.05333 7.36001L6.82667 5.97334C7.25333 5.97334 7.46667 5.86668 7.68 5.76001C8.21333 5.44001 8.64 5.33334 9.6 5.33334C9.70667 5.33334 9.92 5.44001 10.0267 5.54668L12.3733 8.00001C13.3333 9.06668 14.6133 9.60001 15.8933 9.60001C17.1733 9.60001 18.56 9.06668 19.4133 8.00001L21.5467 5.65334C21.6533 5.54668 21.76 5.44001 21.9733 5.44001C22.9333 5.44001 23.36 5.54668 23.8933 5.86668C24.1067 5.97334 24.32 6.08001 24.64 6.18668L27.52 7.46668C28.48 7.89334 29.2267 8.96001 29.3333 10.0267L32 31.36C32 31.4667 32 31.68 31.8933 31.7867C31.7867 31.8933 31.5733 32 31.4667 32ZM27.6267 30.9333H30.8267L28.2667 10.24C28.16 9.49334 27.7333 8.85334 27.0933 8.53334L24.32 7.14668C24 7.04001 23.68 6.93334 23.4667 6.82668C23.04 6.61334 22.8267 6.50668 22.1867 6.50668L20.2667 8.74668C19.2 10.0267 17.6 10.6667 15.8933 10.6667C14.1867 10.6667 12.6933 9.92001 11.52 8.74668L9.38667 6.40001C8.74667 6.40001 8.53333 6.50668 8.10667 6.72001C7.89333 6.82668 7.57333 6.93334 7.25333 7.04001L4.48 8.32001C3.84 8.64001 3.41333 9.38668 3.30667 10.0267L1.17333 30.9333H4.37333L6.4 16.4267C6.4 16.2133 6.72 16 6.93333 16C7.25333 16 7.46667 16.2133 7.46667 16.5333V29.9733C8.42667 30.1867 11.3067 30.9333 16 30.9333C20.6933 30.9333 23.2533 29.8667 24 29.5467L24.5333 17.0667C24.5333 16.7467 24.7467 16.5333 25.0667 16.5333C25.3867 16.5333 25.6 16.7467 25.6 16.96L27.6267 30.9333Z" fill="currentColor"/>
  <path d="M10.1333 11.7333C9.81334 11.7333 9.6 11.52 9.6 11.2C9.6 10.6667 9.38667 10.1333 9.06667 9.6C8.53334 8.53333 8 7.36 9.06667 5.65333C9.28 5.33333 9.6 5.22667 9.92 5.44C10.1333 5.54667 10.24 5.86667 10.1333 6.18667C9.28 7.46667 9.6 8.21333 10.0267 9.17333C10.3467 9.70667 10.6667 10.3467 10.6667 11.2C10.6667 11.52 10.4533 11.7333 10.1333 11.7333Z" fill="currentColor"/>
  <path d="M21.8667 11.7333C21.76 11.7333 21.5467 11.7333 21.44 11.6267C21.2267 11.4133 21.2267 11.0933 21.44 10.88C21.8667 10.4533 21.76 10.0267 21.5467 9.06665C21.3333 8.21332 21.0133 7.25332 21.3333 6.29332C21.44 5.97332 21.76 5.86665 21.9733 5.97332C22.2933 6.07999 22.4 6.39999 22.2933 6.61332C22.08 7.35999 22.2933 8.10665 22.5067 8.74665C22.8267 9.70665 23.1467 10.6667 22.1867 11.6267C22.1867 11.7333 21.9733 11.7333 21.8667 11.7333Z" fill="currentColor"/>
  <path d="M25.0667 17.6C24.96 17.6 24.96 17.6 24.8533 17.6C24.5333 17.4933 24.4267 17.1733 24.5333 16.8533L27.7333 8.85335C27.84 8.53335 28.16 8.42668 28.3733 8.53335C28.6933 8.64001 28.8 8.96001 28.6933 9.28001L25.4933 17.28C25.4933 17.4933 25.28 17.6 25.0667 17.6Z" fill="currentColor"/>
</svg>
