<svg width="32" height="32" viewBox="0 0 32 32" fill="none" 
  xmlns="http://www.w3.org/2000/svg">
  <path d="M9.6 4.8C9.28 4.8 9.06667 4.58667 9.06667 4.26667C9.06667 2.45333 9.6 0.533333 9.6 0.426667C9.70667 0.106667 10.0267 0 10.24 0C10.56 0.106667 10.6667 0.32 10.6667 0.64C10.6667 0.64 10.1333 2.56 10.1333 4.26667C10.1333 4.58667 9.92 4.8 9.6 4.8Z" fill="currentColor"/>
  <path d="M16 32C14.72 32 13.76 30.08 12.5867 27.9467C11.52 25.92 10.24 23.4667 9.06667 23.4667C8.85333 23.4667 8.74667 23.36 8.64 23.2533C8.53333 23.04 8.53333 22.9333 8.53333 22.72C8.53333 22.72 10.6667 17.7067 10.6667 15.4667C10.6667 14.4 10.1333 13.2267 9.6 12.0533C9.06667 10.88 8.53333 9.70668 8.53333 8.53335C8.53333 7.04001 8.74667 6.29335 8.85333 5.65335C8.96 5.22668 9.06667 4.90668 9.06667 4.26668C9.06667 4.05335 9.17333 3.84001 9.38667 3.73335C9.6 3.62668 9.81333 3.73335 10.0267 3.94668C10.0267 3.94668 13.3333 8.00001 16.5333 8.00001C19.7333 8.00001 21.8667 3.52001 21.9733 3.52001C22.08 3.30668 22.2933 3.20001 22.5067 3.20001C22.72 3.30668 22.9333 3.52001 22.9333 3.73335C22.9333 4.37335 23.04 4.90668 23.1467 5.44001C23.2533 6.18668 23.4667 7.04001 23.4667 8.53335C23.4667 9.70668 22.9333 10.9867 22.4 12.2667C21.8667 13.44 21.3333 14.72 21.3333 15.8933C21.3333 18.1333 23.36 22.72 23.4667 22.72C23.5733 22.9333 23.5733 23.04 23.4667 23.2533C23.36 23.36 23.1467 23.4667 23.04 23.4667C21.76 23.4667 20.48 25.92 19.52 27.9467C18.24 30.08 17.28 32 16 32ZM9.81333 22.5067C11.3067 23.04 12.48 25.28 13.5467 27.4133C14.2933 28.9067 15.36 30.9333 16 30.9333C16.64 30.9333 17.7067 28.9067 18.4533 27.4133C19.52 25.28 20.6933 23.04 22.1867 22.5067C21.6533 21.12 20.2667 17.8133 20.2667 15.7867C20.2667 14.5067 20.8 13.12 21.44 11.7333C21.8667 10.6667 22.4 9.49335 22.4 8.53335C22.4 7.14668 22.1867 6.29335 22.08 5.65335C22.08 5.54668 22.08 5.44001 22.08 5.44001C21.0133 6.93335 19.0933 9.17335 16.5333 9.17335C13.76 9.17335 11.3067 6.93335 10.0267 5.65335C10.0267 5.76001 9.92 5.97335 9.92 6.08001C9.70667 6.50668 9.6 7.14668 9.6 8.53335C9.6 9.49335 10.0267 10.56 10.56 11.6267C11.0933 12.8 11.7333 14.08 11.7333 15.4667C11.7333 17.4933 10.3467 21.12 9.81333 22.5067Z" fill="currentColor"/>
  <path d="M22.4 4.26665C22.08 4.26665 21.8667 4.05332 21.8667 3.73332C21.8667 2.13332 21.3333 0.74665 21.3333 0.74665C21.2267 0.42665 21.3333 0.213317 21.6533 0.10665C21.9733 -1.62795e-05 22.1867 0.10665 22.2933 0.42665C22.2933 0.533317 22.8267 2.02665 22.8267 3.83998C22.9333 4.05332 22.72 4.26665 22.4 4.26665Z" fill="currentColor"/>
</svg>
