<svg width="30" height="30" viewBox="0 0 30 30" fill="none" 
  xmlns="http://www.w3.org/2000/svg">
  <g clip-path="url(#clip0)">
    <path d="M27 30H16C15.7 30 15.5 29.8 15.5 29.5L14.9 20.5L14 29.5C14 29.8 13.8 29.9 13.5 29.9H2C1.7 29.9 1.5 29.7 1.5 29.4C1.5 29 0.5 18.5 0.5 14.7C0.5 10.9 1.5 5.49999 1.5 5.19999V2.79999C1.5 1.09999 2.8 -0.200012 4.5 -0.200012H24.5C26.2 -0.200012 27.5 1.09999 27.5 2.79999V5.19999C27.8 5.89999 29.5 11.1 29.5 14.8C29.5 18.6 27.6 29 27.5 29.4C27.4 29.8 27.2 30 27 30ZM16.5 29H26.6C27 27 28.5 18.3 28.5 15C28.5 11.3 26.5 5.69999 26.5 5.69999C26.5 5.59999 26.5 5.59999 26.5 5.49999V2.99999C26.5 1.89999 25.6 0.999988 24.5 0.999988H4.5C3.4 0.999988 2.5 1.89999 2.5 2.99999V5.49999C2.5 5.59999 1.5 11.1 1.5 14.9C1.5 18.2 2.3 26.9 2.5 29H13L14.5 14.4C14.5 14.1 14.7 14 15 14C15.3 14 15.5 14.2 15.5 14.5L16.5 29Z" fill="currentColor"/>
    <path d="M27 6H2C1.7 6 1.5 5.8 1.5 5.5C1.5 5.2 1.7 5 2 5H27C27.3 5 27.5 5.2 27.5 5.5C27.5 5.8 27.3 6 27 6Z" fill="currentColor"/>
    <path d="M11 14C10.7 14 10.5 13.8 10.5 13.5C10.5 12.3 10.2 10.8 9.90002 9.3C9.40002 6.6 8.90002 4 9.70002 2.8C10 2.3 10.4 2.1 10.9 2C11.2 2 11.4 2.1 11.5 2.4C11.5 2.7 11.4 2.9 11.1 3C10.9 3 10.7 3.1 10.6 3.3C10 4.2 10.5 6.8 10.9 9.1C11.2 10.6 11.5 12.2 11.5 13.5C11.5 13.8 11.3 14 11 14Z" fill="currentColor"/>
    <path d="M19 14C18.7 14 18.5 13.8 18.5 13.5C18.5 12.2 18.8 10.6 19.1 9.1C19.5 6.8 20 4.2 19.4 3.3C19.3 3.1 19.2 3 18.9 3C18.6 3 18.4 2.7 18.5 2.4C18.5 2.1 18.8 2 19.1 2C19.6 2.1 20 2.3 20.3 2.7C21.2 4 20.7 6.5 20.1 9.2C19.8 10.7 19.5 12.2 19.5 13.4C19.5 13.8 19.3 14 19 14Z" fill="currentColor"/>
  </g>
  <defs>
    <clipPath id="clip0">
      <rect width="30" height="30" fill="white"/>
    </clipPath>
  </defs>
</svg>
