<svg width="32" height="32" viewBox="0 0 32 32" fill="none" 
  xmlns="http://www.w3.org/2000/svg">
  <path d="M16 27.2C14.4 27.2 11.9467 25.7067 11.2 23.68C10.6667 22.2933 2.77333 19.7333 0.533333 19.7333C0.213333 19.7333 0 19.52 0 19.2C0 16.8533 2.02667 8.21334 2.13333 7.89334C2.24 7.57334 2.45333 7.46667 2.77333 7.46667C2.88 7.46667 13.8667 9.06667 16 9.06667C18.1333 9.06667 28.16 8.00001 28.16 8.00001C28.3733 8.00001 28.5867 8.10668 28.6933 8.32001C28.8 8.64001 31.8933 16.8533 31.8933 19.2C31.8933 19.52 31.68 19.7333 31.36 19.7333C29.3333 19.7333 20.6933 22.1867 20.16 23.68C19.52 25.7067 17.7067 27.2 16 27.2ZM1.06667 18.6667C3.62667 18.9867 11.4133 21.12 12.16 23.2533C12.8 24.96 14.8267 26.1333 15.8933 26.1333C16.96 26.1333 18.4533 25.0667 19.0933 23.2533C19.84 21.2267 28.0533 18.9867 30.72 18.6667C30.4 16.5333 28.5867 11.4133 27.7333 9.06667C25.8133 9.28001 17.8133 10.1333 15.7867 10.1333C13.76 10.1333 5.22667 8.96001 3.09333 8.64001C2.66667 10.3467 1.28 16.32 1.06667 18.6667Z" fill="currentColor"/>
  <path d="M19.7333 24C19.6267 24 19.6267 24 19.52 24C19.2 23.8933 19.0933 23.5733 19.2 23.36C19.9467 21.12 21.12 13.5466 19.2 9.91998C19.0933 9.70665 19.2 9.38665 19.4133 9.17332C19.6267 9.06665 19.9467 9.17332 20.16 9.38665C22.2933 13.3333 21.0133 21.2267 20.16 23.68C20.16 23.8933 19.9467 24 19.7333 24Z" fill="currentColor"/>
  <path d="M11.7333 24C11.52 24 11.3067 23.8933 11.2 23.68C10.3467 21.2267 9.17333 13.3333 11.2 9.38665C11.3067 9.17332 11.6267 9.06665 11.9467 9.17332C12.16 9.27998 12.2667 9.59998 12.16 9.91998C10.24 13.5466 11.4133 21.12 12.16 23.36C12.2667 23.68 12.0533 23.8933 11.84 24C11.84 24 11.84 24 11.7333 24Z" fill="currentColor"/>
  <path d="M28.2667 9.06665C27.9467 9.06665 27.7333 8.85332 27.7333 8.53332V5.97332C25.7067 6.18665 19.2 6.93332 16 6.93332C12.6933 6.93332 5.33333 6.18665 3.2 5.97332V7.99999C3.2 8.31999 2.98666 8.53332 2.66666 8.53332C2.34666 8.53332 2.13333 8.31999 2.13333 7.99999V5.33332C2.13333 5.22665 2.24 5.01332 2.34666 4.90665C2.45333 4.79999 2.66666 4.79999 2.77333 4.79999C2.88 4.79999 12.3733 5.86665 16 5.86665C19.7333 5.86665 28.16 4.79999 28.16 4.79999C28.2667 4.79999 28.48 4.79999 28.5867 4.90665C28.6933 5.01332 28.8 5.22665 28.8 5.33332V8.53332C28.8 8.85332 28.5867 9.06665 28.2667 9.06665Z" fill="currentColor"/>
</svg>
