<svg width="32" height="32" viewBox="0 0 32 32" fill="none" 
  xmlns="http://www.w3.org/2000/svg">
  <path d="M1.92 25.6C0.853333 25.6 0 24.7467 0 23.68V21.8667C0 21.5467 0.213333 21.3334 0.533333 21.3334H3.2C3.52 21.3334 3.73333 21.5467 3.73333 21.8667C3.73333 22.1867 3.52 22.4 3.2 22.4H1.06667V23.68C1.06667 24.2134 1.38667 24.5334 1.92 24.5334H21.9733C25.6 24.32 31.04 23.36 31.04 21.8667V19.2C31.04 18.88 31.2533 18.6667 31.5733 18.6667C31.8933 18.6667 32 18.88 32 19.2V21.8667C32 24.8534 23.5733 25.4934 21.8667 25.6H1.92Z" fill="currentColor"/>
  <path d="M21.8667 22.4H1.92C0.853333 22.4 0 21.2267 0 20.2667C0 16.2134 0.853333 14.5067 1.49333 13.2267C1.92 12.48 2.13333 11.9467 2.13333 11.2C2.13333 10.7734 1.6 9.38669 1.06667 8.21336C1.06667 8.00002 1.06667 7.89336 1.17333 7.68002C1.28 7.57336 1.38667 7.46669 1.6 7.46669L13.8667 6.40002C14.08 6.40002 14.4 6.50669 14.4 6.82669C14.8267 8.96002 18.4533 13.12 20.5867 14.5067C21.3333 14.9334 23.2533 15.4667 25.1733 16C29.44 17.1734 32 17.92 32 19.2C32 22.2934 23.5733 22.4 21.8667 22.4ZM2.34667 8.42669C2.66667 9.28002 3.2 10.6667 3.2 11.2C3.2 12.16 2.88 12.9067 2.45333 13.6534C1.81333 14.9334 1.06667 16.5334 1.06667 20.2667C1.06667 20.8 1.49333 21.3334 1.92 21.3334H21.8667C25.4933 21.3334 30.9333 20.6934 30.9333 19.2C30.72 18.56 26.88 17.6 24.8533 16.96C22.72 16.4267 20.8 15.8934 19.9467 15.36C17.92 14.08 14.2933 10.1334 13.44 7.46669L2.34667 8.42669Z" fill="currentColor"/>
  <path d="M21.8667 25.0667C21.5467 25.0667 21.3333 24.8533 21.3333 24.5333V21.9733C21.3333 21.8667 21.3333 21.76 21.44 21.6533C21.76 21.12 24.64 16.64 27.2 16.64C27.52 16.64 27.7333 16.8533 27.7333 17.1733C27.7333 17.4933 27.52 17.7067 27.2 17.7067C25.4933 17.7067 23.2533 20.8 22.4 22.08V24.5333C22.4 24.8533 22.1867 25.0667 21.8667 25.0667Z" fill="currentColor"/>
  <path d="M21.3333 18.6667H21.2267C20.9067 18.56 20.8 18.3467 20.8 18.0267L21.3333 15.8933C21.44 15.5733 21.6533 15.4667 21.9733 15.4667C22.2933 15.5733 22.4 15.7867 22.4 16.1067L21.8667 18.24C21.76 18.4533 21.5467 18.6667 21.3333 18.6667Z" fill="currentColor"/>
  <path d="M17.6 17.0667C17.4933 17.0667 17.3867 17.0667 17.28 16.96C17.0667 16.7467 16.96 16.4267 17.1733 16.2133L18.7733 14.08C18.9867 13.8667 19.3067 13.76 19.52 13.9733C19.7333 14.1867 19.84 14.5067 19.6267 14.72L18.0267 16.8533C17.92 16.96 17.8133 17.0667 17.6 17.0667Z" fill="currentColor"/>
  <path d="M14.9333 14.4C14.72 14.4 14.6133 14.2934 14.5067 14.1867C14.4 13.9734 14.4 13.6534 14.72 13.44L16.96 12.16C17.1733 12.0534 17.4933 12.0534 17.7067 12.3734C17.8133 12.5867 17.8133 12.9067 17.4933 13.12L15.2533 14.4C15.1467 14.4 15.04 14.4 14.9333 14.4Z" fill="currentColor"/>
  <path d="M12.8 11.7333C12.5867 11.7333 12.3733 11.6267 12.2667 11.4133C12.16 11.0933 12.2667 10.88 12.5867 10.6667L15.2533 9.6C15.5733 9.49333 15.7867 9.6 16 9.92C16.1067 10.24 16 10.4533 15.68 10.6667L13.0133 11.7333C12.9067 11.7333 12.9067 11.7333 12.8 11.7333Z" fill="currentColor"/>
  <path d="M7.46666 18.1333C5.65333 18.1333 4.26666 16.7467 4.26666 14.9333C4.26666 13.12 5.65333 11.7333 7.46666 11.7333C9.28 11.7333 10.6667 13.12 10.6667 14.9333C10.6667 16.7467 9.28 18.1333 7.46666 18.1333ZM7.46666 12.8C6.29333 12.8 5.33333 13.76 5.33333 14.9333C5.33333 16.1067 6.29333 17.0667 7.46666 17.0667C8.64 17.0667 9.6 16.1067 9.6 14.9333C9.6 13.76 8.64 12.8 7.46666 12.8Z" fill="currentColor"/>
</svg>
