<svg width="31" height="30" viewBox="0 0 31 30" fill="none" 
  xmlns="http://www.w3.org/2000/svg">
  <path fill-rule="evenodd" clip-rule="evenodd" d="M7.11836 1.8041C5.35105 1.8041 3.91836 3.23679 3.91836 5.0041C3.91836 6.77141 5.35105 8.2041 7.11836 8.2041C8.88567 8.2041 10.3184 6.77141 10.3184 5.0041C10.3184 3.23679 8.88567 1.8041 7.11836 1.8041ZM2.31836 5.0041C2.31836 2.35313 4.46739 0.204102 7.11836 0.204102C9.76933 0.204102 11.9184 2.35313 11.9184 5.0041C11.9184 7.65507 9.76933 9.8041 7.11836 9.8041C4.46739 9.8041 2.31836 7.65507 2.31836 5.0041Z" fill="currentColor"/>
  <path fill-rule="evenodd" clip-rule="evenodd" d="M23.1184 1.8041C21.351 1.8041 19.9184 3.23679 19.9184 5.0041C19.9184 6.77141 21.351 8.2041 23.1184 8.2041C24.8857 8.2041 26.3184 6.77141 26.3184 5.0041C26.3184 3.23679 24.8857 1.8041 23.1184 1.8041ZM18.3184 5.0041C18.3184 2.35313 20.4674 0.204102 23.1184 0.204102C25.7693 0.204102 27.9184 2.35313 27.9184 5.0041C27.9184 7.65507 25.7693 9.8041 23.1184 9.8041C20.4674 9.8041 18.3184 7.65507 18.3184 5.0041Z" fill="currentColor"/>
  <path fill-rule="evenodd" clip-rule="evenodd" d="M2.31003 12.1919C3.58528 10.9166 5.31489 10.2002 7.11836 10.2002C8.92183 10.2002 10.6514 10.9166 11.9267 12.1919C13.2019 13.4671 13.9184 15.1967 13.9184 17.0002V21.0002C13.9184 21.442 13.5602 21.8002 13.1184 21.8002H10.8501L10.2005 29.0714C10.1637 29.484 9.81794 29.8002 9.40369 29.8002H4.83303C4.41878 29.8002 4.07306 29.484 4.0362 29.0714L3.38664 21.8002H1.11836C0.676532 21.8002 0.318359 21.442 0.318359 21.0002V17.0002C0.318359 15.1967 1.03479 13.4671 2.31003 12.1919ZM7.11836 11.8002C5.73923 11.8002 4.41659 12.3481 3.4414 13.3232C2.46621 14.2984 1.91836 15.6211 1.91836 17.0002V20.2002H4.11836C4.5326 20.2002 4.87833 20.5164 4.91519 20.929L5.56475 28.2002H8.67197L9.32153 20.929C9.35839 20.5164 9.70412 20.2002 10.1184 20.2002H12.3184V17.0002C12.3184 15.6211 11.7705 14.2984 10.7953 13.3232C9.82013 12.3481 8.49749 11.8002 7.11836 11.8002Z" fill="currentColor"/>
  <path fill-rule="evenodd" clip-rule="evenodd" d="M19.8449 11.4103C20.6419 10.5389 21.6937 10.2002 23.1184 10.2002C24.543 10.2002 25.5949 10.5389 26.3919 11.4103C27.1186 12.2049 27.5518 13.3712 28.0078 14.7387L30.8715 22.7303C30.9593 22.9754 30.9224 23.2478 30.7725 23.4607C30.6227 23.6735 30.3787 23.8002 30.1184 23.8002H26.7961L25.9075 29.1317C25.8432 29.5175 25.5094 29.8002 25.1184 29.8002H21.1184C20.7273 29.8002 20.3935 29.5175 20.3292 29.1317L19.4407 23.8002H16.1184C15.8581 23.8002 15.614 23.6735 15.4642 23.4607C15.3144 23.2478 15.2774 22.9754 15.3653 22.7303L18.2289 14.7387C18.6849 13.3712 19.1181 12.2049 19.8449 11.4103ZM21.0255 12.4901C20.5648 12.9938 20.2203 13.8243 19.744 15.2532L19.7383 15.2701L17.2548 22.2002H20.1184C20.5094 22.2002 20.8432 22.4829 20.9075 22.8687L21.7961 28.2002H24.4407L25.3292 22.8687C25.3935 22.4829 25.7273 22.2002 26.1184 22.2002H28.9819L26.4926 15.2532C26.0163 13.8244 25.6719 12.9938 25.2112 12.4901C24.8192 12.0615 24.2711 11.8002 23.1184 11.8002C21.9657 11.8002 21.4175 12.0615 21.0255 12.4901Z" fill="currentColor"/>
</svg>
