<svg width="24" height="24" viewBox="0 0 24 24" fill="none" xmlns="http://www.w3.org/2000/svg">
<path d="M17.5 1H6.5C3.46243 1 1 3.46243 1 6.5V17.5C1 20.5376 3.46243 23 6.5 23H17.5C20.5376 23 23 20.5376 23 17.5V6.5C23 3.46243 20.5376 1 17.5 1Z" stroke="currentColor" stroke-width="2" stroke-linecap="round" stroke-linejoin="round"/>
<path d="M16.3999 11.3068C16.5356 12.2223 16.3793 13.1573 15.953 13.9788C15.5268 14.8002 14.8523 15.4664 14.0257 15.8825C13.199 16.2986 12.2622 16.4434 11.3484 16.2964C10.4347 16.1493 9.59061 15.7179 8.9362 15.0635C8.28178 14.4091 7.85038 13.565 7.70335 12.6513C7.55632 11.7376 7.70114 10.8007 8.11723 9.97405C8.53332 9.14738 9.19948 8.47296 10.021 8.04671C10.8424 7.62046 11.7774 7.46409 12.6929 7.59984C13.6267 7.73832 14.4912 8.17345 15.1587 8.84098C15.8263 9.50851 16.2614 10.373 16.3999 11.3068Z" stroke="currentColor" stroke-width="2" stroke-linecap="round" stroke-linejoin="round"/>
</svg>
