<svg width="29" height="29" viewBox="0 0 29 29" fill="none" 
  xmlns="http://www.w3.org/2000/svg">
  <path fill-rule="evenodd" clip-rule="evenodd" d="M27.2288 0.922827C27.5217 1.21707 27.5217 1.69412 27.2288 1.98836L25.0311 4.19616L28.5928 7.77424C28.8857 8.06848 28.8857 8.54553 28.5928 8.83977L23.8188 13.6358C23.6781 13.7771 23.4873 13.8564 23.2884 13.8564C23.0895 13.8564 22.8988 13.7771 22.7581 13.6358L19.1964 10.0577L14.63 14.645C15.167 15.2848 15.6054 16.0037 15.9291 16.7779C16.3507 17.7858 16.5695 18.8676 16.5732 19.961C16.5768 21.0543 16.3652 22.1375 15.9504 23.1484C15.5356 24.1592 14.9258 25.0776 14.1563 25.8507C13.3867 26.6238 12.4725 27.2363 11.4663 27.653C10.4601 28.0697 9.38182 28.2824 8.29349 28.2787C7.20517 28.275 6.12831 28.0551 5.12493 27.6317C4.12154 27.2082 3.21145 26.5895 2.44706 25.8113L2.44143 25.8055C0.938245 24.242 0.10651 22.1479 0.125312 19.9743C0.144114 17.8007 1.01198 15.7215 2.54198 14.1844C4.07199 12.6474 6.14172 11.7755 8.3054 11.7566C10.2218 11.7399 12.0762 12.3935 13.5564 13.5925L26.1681 0.922827C26.461 0.628589 26.9359 0.628589 27.2288 0.922827ZM23.9704 5.26169L20.257 8.99215L23.2884 12.0375L27.0018 8.30701L23.9704 5.26169ZM13.0999 15.1967C13.089 15.1872 13.0783 15.1775 13.0679 15.1673C11.7944 13.9317 10.0888 13.248 8.31843 13.2635C6.54805 13.2789 4.85454 13.9923 3.60264 15.25C2.35075 16.5076 1.64064 18.2089 1.62526 19.9874C1.60988 21.7646 2.28942 23.4767 3.51761 24.7557C4.14248 25.3912 4.88614 25.8964 5.70591 26.2424C6.5269 26.5889 7.40802 26.7688 8.29852 26.7718C9.18902 26.7748 10.0713 26.6008 10.8946 26.2599C11.7179 25.9189 12.4659 25.4177 13.0956 24.7851C13.7253 24.1526 14.2242 23.4011 14.5636 22.574C14.903 21.747 15.0762 20.8606 15.0732 19.966C15.0702 19.0714 14.8911 18.1863 14.5462 17.3615C14.2079 16.5526 13.7167 15.8174 13.0999 15.1967Z" fill="#3E4C59"/>
</svg>
