<svg width="16" height="12" viewBox="0 0 16 12" fill="none" 
  xmlns="http://www.w3.org/2000/svg">
  <path d="M2.58594 11.8545H13.5508C14.7471 11.8545 15.4307 11.1709 15.4307 9.85156V2.29785C15.4307 0.985352 14.7471 0.301758 13.4141 0.301758H2.44922C1.25293 0.301758 0.569336 0.978516 0.569336 2.29785V9.85156C0.569336 11.1777 1.25293 11.8545 2.58594 11.8545ZM7.18652 6.5498L1.84082 1.28613C2.02539 1.16992 2.27148 1.1084 2.56543 1.1084H13.4346C13.7422 1.1084 13.9951 1.17676 14.1865 1.31348L8.86133 6.5498C8.56738 6.84375 8.28711 6.95996 8.02734 6.95996C7.76074 6.95996 7.47363 6.83691 7.18652 6.5498ZM1.38281 9.84473V2.30469C1.38281 2.18164 1.38965 2.07227 1.41016 1.97656L5.6416 6.11914L1.42383 10.2344C1.39648 10.1182 1.38281 9.98828 1.38281 9.84473ZM14.6172 2.30469V9.85156C14.6172 9.97461 14.6104 10.0908 14.5898 10.1934L10.4062 6.11914L14.5967 2.01758C14.6104 2.10645 14.6172 2.20215 14.6172 2.30469ZM2.56543 11.041C2.29199 11.041 2.06641 10.9932 1.88184 10.8906L6.20215 6.66602L6.70801 7.16504C7.15918 7.60254 7.59668 7.77344 8.02734 7.77344C8.45801 7.77344 8.89551 7.60254 9.33984 7.16504L9.8457 6.66602L14.1455 10.8701C13.9541 10.9863 13.7148 11.041 13.4346 11.041H2.56543Z" fill="currentColor"/>
</svg>
