<svg width="26" height="26" viewBox="0 0 26 26" fill="none" xmlns="http://www.w3.org/2000/svg">
<path d="M4 7C2.346 7 1 5.654 1 4C1 2.346 2.346 1 4 1C5.654 1 7 2.346 7 4C7 5.654 5.654 7 4 7ZM4 2C2.897 2 2 2.897 2 4C2 5.103 2.897 6 4 6C5.103 6 6 5.103 6 4C6 2.897 5.103 2 4 2Z" fill="currentColor" stroke="currentColor"/>
<path d="M6.5 25H1.5C1.224 25 1 24.776 1 24.5V9.5C1 9.224 1.224 9 1.5 9H6.5C6.776 9 7 9.224 7 9.5V24.5C7 24.777 6.776 25 6.5 25ZM2 24H6V10H2V24Z" fill="currentColor" stroke="currentColor"/>
<path d="M24.5 25.0002H19.5C19.224 25.0002 19 24.7762 19 24.5002V15.5002C19 14.3652 18.527 13.5132 17.701 13.1642C16.848 12.8022 15.807 13.0242 15 13.7202V24.5002C15 24.7762 14.776 25.0002 14.5 25.0002H9.5C9.224 25.0002 9 24.7762 9 24.5002V9.50024C9 9.22424 9.224 9.00024 9.5 9.00024H14.5C14.733 9.00024 14.929 9.16024 14.984 9.37524C16.588 8.22124 19.26 7.57924 21.397 8.31124C23.01 8.86424 24.943 10.3842 25 14.4942V24.5012C25 24.7772 24.776 25.0002 24.5 25.0002ZM20 24.0002H24V14.5002C23.962 11.7152 22.949 9.89924 21.073 9.25724C18.743 8.45924 15.807 9.66424 14.89 10.8122C14.757 10.9792 14.533 11.0412 14.334 10.9722C14.134 10.9022 14 10.7132 14 10.5002V10.0002H10V24.0002H14V13.5002C14 13.3652 14.055 13.2352 14.151 13.1422C15.269 12.0562 16.818 11.7062 18.09 12.2432C19.304 12.7572 20 13.9442 19.999 15.5002V24.0002H20Z" fill="currentColor" stroke="currentColor"/>
</svg>
