<svg width="64" height="32" viewBox="0 0 64 32" fill="none" xmlns="http://www.w3.org/2000/svg">
	<path d="M45.819 28.285a.199.199 0 0 1 .234.024c.564.461 1.235.665 1.94.763a6.18 6.18 0 0 0 2.12-.066c1.226-.252 2.04-1.002 2.511-2.118.511-1.208.977-2.435 1.465-3.65a.303.303 0 0 0-.021-.255l-1.439-3.247-2.878-6.486-2.463-5.565c-.121-.274-.268-.536-.412-.8a1.814 1.814 0 0 0-.819-.735 1.832 1.832 0 0 0-1.096-.13c-.175.035-.348.08-.518.133-.483.163-.672.52-.716.986-.01.122-.015.243-.012.365v13.28c-.012.244.013.488.074.725a.962.962 0 0 0 .578.627c.47.206.969.202 1.463.248a.397.397 0 0 1 .189.032.659.659 0 0 1 0 .367H32.062v-2.467c-.2.217-.364.4-.537.575-.88.898-1.881 1.61-3.108 1.964-1.691.489-3.253.257-4.647-.854a3.465 3.465 0 0 1-.678-.78.363.363 0 0 0-.115-.134c-.118.123-.233.249-.354.37-.821.814-1.775 1.404-2.941 1.597a5.103 5.103 0 0 1-3.064-.378c-1.052-.49-1.66-1.356-1.985-2.445a7.563 7.563 0 0 1-.28-2.187V6.865a.574.574 0 0 0-.03-.262h-1.81V5.541h1.84V3.795a13.692 13.692 0 0 0 3.554-3.77.203.203 0 0 1 .202 0V5.53h4.179v1.064h-4.105a.253.253 0 0 0-.064.22v11.047c-.003.49.074.976.23 1.44.307.892.924 1.43 1.862 1.575a4.411 4.411 0 0 0 2.338-.263c.036-.015.072-.03.107-.049.034-.018.036-.026.073-.053-.062-.21-.14-.424-.182-.652-.264-1.395.043-2.63 1.018-3.69.537-.585 1.209-.978 1.903-1.343.926-.488 1.918-.798 2.9-1.14l3.528-1.234c.046-.016.092-.037.129-.052a.313.313 0 0 0 .034-.205c0-.883.012-1.765 0-2.648-.011-.784-.062-1.565-.353-2.308-.7-1.792-2.593-1.926-3.632-1.334-.601.343-.925.909-1.113 1.546a5.516 5.516 0 0 0-.164 1.898c.01.518.103 1.03.277 1.518-.122.102-.264.075-.39.092a75.46 75.46 0 0 1-1.728.237.66.66 0 0 1-.375-.069c-.75-.355-1.118-.977-1.17-1.774-.079-1.196.492-2.1 1.402-2.821.857-.678 1.86-1.033 2.915-1.255a10.09 10.09 0 0 1 4.782.118c1.194.325 2.147.977 2.734 2.097.322.643.515 1.342.569 2.058.045.476.032.953.032 1.43v9.878c-.003.228.028.455.092.674a.89.89 0 0 0 .535.582c.621.264 1.273.269 1.928.218.235-.014.467-.057.691-.127.56-.187.795-.489.831-1.077v-.266V7.468a2.137 2.137 0 0 0-.088-.69.921.921 0 0 0-.526-.573 3.03 3.03 0 0 0-1.05-.228l-.636-.044a.485.485 0 0 1 0-.388h15.955a.51.51 0 0 1 0 .35c-.261.025-.52.051-.78.08a4.33 4.33 0 0 0-.898.198c-.573.192-.766.526-.657 1.114.098.434.239.857.42 1.263 1.325 3.413 2.651 6.826 3.98 10.239.018.044.04.086.074.163.079-.212.15-.391.215-.572 1.257-3.414 2.516-6.83 3.777-10.245.154-.351.245-.726.27-1.108a.727.727 0 0 0-.44-.708 3.567 3.567 0 0 0-1.111-.304c-.363-.052-.73-.082-1.102-.122a.485.485 0 0 1-.013-.341h5.663a.455.455 0 0 1 .02.326.474.474 0 0 1-.21.07c-.164.042-.329.08-.493.125a1.914 1.914 0 0 0-1.177.934 11.51 11.51 0 0 0-.701 1.62c-1.087 2.796-2.17 5.594-3.251 8.394-.887 2.281-1.764 4.572-2.662 6.852-.571 1.452-1.105 2.92-1.737 4.35a7.544 7.544 0 0 1-1.754 2.558 4.542 4.542 0 0 1-2.758 1.198 5.593 5.593 0 0 1-2.606-.349c-.15-.06-.294-.137-.438-.208a.822.822 0 0 1-.1-.076c.24-1.02.476-2.045.71-3.061zm-13.77-15.397c-.627.26-1.228.502-1.824.755-.75.326-1.522.59-2.241.977-.843.454-1.5 1.076-1.775 2.013a4.17 4.17 0 0 0 .034 2.526c.12.413.338.791.635 1.103.298.312.667.549 1.076.69.55.179 1.135.225 1.706.133a4.013 4.013 0 0 0 2.39-1.178v-7.019zM.2 21.292c-.066-1.612-.133-3.212-.2-4.8a.496.496 0 0 1 .315-.015c.044.05.07.113.073.179.31 1.22.761 2.38 1.538 3.388.708.922 1.558 1.672 2.676 2.07 1.094.389 2.183.392 3.248-.103a2.89 2.89 0 0 0 1.087-.846 2.86 2.86 0 0 0 .568-1.25c.21-.953.097-1.848-.545-2.625-.39-.447-.87-.81-1.407-1.068-.898-.464-1.844-.827-2.778-1.212-.934-.384-1.838-.8-2.64-1.43-.91-.723-1.51-1.62-1.657-2.79-.253-2.016.535-3.912 2.441-5.025a6.91 6.91 0 0 1 3.141-.909 9.01 9.01 0 0 1 5.212 1.28l.113.071c.02.016.038.034.055.052v4.17a.294.294 0 0 1-.275.021.853.853 0 0 1-.085-.348c-.283-1.394-.879-2.622-1.94-3.585-.832-.758-1.807-1.195-2.956-1.15-.844.03-1.61.28-2.194.922a2.818 2.818 0 0 0-.723 1.735c-.064.659.099 1.32.462 1.874.392.59.964.958 1.571 1.294.925.512 1.934.815 2.898 1.23.905.388 1.806.766 2.598 1.379.91.71 1.527 1.597 1.691 2.757.338 2.386-.691 4.446-2.791 5.54a7.563 7.563 0 0 1-3.021.816 11.549 11.549 0 0 1-5.135-.843 4.92 4.92 0 0 1-1.34-.779zM60.916 22.772a2.081 2.081 0 0 1-1.15-.354 2.058 2.058 0 0 1-.757-.93 2.04 2.04 0 0 1 .47-2.24 2.076 2.076 0 0 1 2.266-.42c.377.161.697.43.92.77a2.044 2.044 0 0 1-.288 2.586 2.08 2.08 0 0 1-1.46.588z" fill="#000"/>
</svg>