<svg width="24" height="24" viewBox="0 0 24 24" fill="none" 
  xmlns="http://www.w3.org/2000/svg">
  <path d="M16.5327 10.3169C17.0146 10.4502 17.4146 10.4092 17.8042 10.1938C18.1938 9.95801 18.4297 9.64014 18.5527 9.14795L19.373 5.87695C19.5679 5.11816 19.1475 4.4209 18.4502 4.25684C17.7324 4.08252 17.0249 4.48242 16.8506 5.26172L16.8403 5.30273L14.8818 1.80615C14.2461 0.678223 13.1387 0.134766 12.0005 0.134766C10.8726 0.134766 9.76514 0.657715 9.11914 1.80615L6.95557 5.66162C6.51465 6.45117 6.68896 7.34326 7.48877 7.78418C8.28857 8.2251 9.17041 8.00977 9.61133 7.20996L11.4365 3.91846C11.5493 3.71338 11.7852 3.63135 11.9902 3.63135C12.2056 3.63135 12.4209 3.72363 12.5337 3.92871L14.2256 6.97412L14.0205 6.9126C13.2515 6.67676 12.5132 7.07666 12.3389 7.80469C12.1646 8.50195 12.5439 9.17871 13.2925 9.39404L16.5327 10.3169ZM4.32031 20.8169H8.53467C9.43701 20.8169 10.1035 20.1504 10.1035 19.2583C10.1035 18.356 9.43701 17.6997 8.53467 17.6997H4.85352C4.49463 17.6997 4.24854 17.4844 4.24854 17.1665C4.24854 17.0024 4.34082 16.7871 4.43311 16.6436L5.90967 13.9673L5.91992 13.9878C6.10449 14.7773 6.82227 15.208 7.54004 15.0029C8.22705 14.8081 8.62695 14.1313 8.43213 13.3828L7.61182 10.1118C7.48877 9.62988 7.25293 9.2915 6.87354 9.07617C6.47363 8.85059 6.08398 8.79932 5.58154 8.95313L2.34131 9.87598C1.59277 10.0811 1.20312 10.7988 1.39795 11.4756C1.61328 12.1831 2.3208 12.6035 3.06934 12.3677L3.2334 12.3164L1.42871 15.5464C1.11084 16.1206 0.833984 16.6743 0.833984 17.3818C0.833984 19.2275 2.06445 20.8169 4.32031 20.8169ZM14.5435 22.8267C15.0562 23.3188 15.8662 23.3086 16.3584 22.7856C16.8711 22.2627 16.8608 21.4526 16.2866 20.8989L16.1943 20.8169H19.6807C21.9365 20.8169 23.167 19.2275 23.167 17.3818C23.167 16.6743 22.9004 16.1411 22.5723 15.5464L20.6035 12.0396C20.1626 11.25 19.2603 11.0039 18.481 11.4448C17.7017 11.8857 17.4556 12.8188 17.876 13.5776L19.5679 16.6436C19.6499 16.7871 19.7422 17.0024 19.7422 17.1665C19.7422 17.4844 19.5063 17.6997 19.1475 17.6997H16.1943L16.2764 17.6279C16.8711 17.064 16.8813 16.2334 16.3379 15.7207C15.8354 15.2183 15.0459 15.208 14.4922 15.7515L12.0723 18.0894C11.7134 18.438 11.5391 18.8071 11.5391 19.2583C11.5391 19.7095 11.7134 20.0786 12.0723 20.4272L14.5435 22.8267Z" fill="#73D2B6"/>
</svg>
