<svg width="21" height="22" viewBox="0 0 21 22" fill="none" 
  xmlns="http://www.w3.org/2000/svg">
  <path d="M10.4648 11.2764C13.1367 11.2764 15.2109 8.97949 15.2109 6.02637C15.2109 3.20215 13.0781 0.893555 10.4648 0.893555C7.85156 0.893555 5.70703 3.22559 5.73047 6.03809C5.75391 8.97949 7.80469 11.2764 10.4648 11.2764ZM10.4648 10.4209C8.29688 10.4209 6.59766 8.52246 6.59766 6.03809C6.57422 3.68262 8.33203 1.7373 10.4648 1.7373C12.5977 1.7373 14.332 3.65918 14.332 6.02637C14.332 8.52246 12.6445 10.4209 10.4648 10.4209ZM2.61328 21.8701H18.2812C19.6875 21.8701 20.3555 21.3896 20.3555 20.335C20.3555 17.2998 16.5586 13.0576 10.4414 13.0576C4.33594 13.0576 0.527344 17.2998 0.527344 20.335C0.527344 21.3896 1.19531 21.8701 2.61328 21.8701ZM2.49609 21.0264C1.66406 21.0264 1.40625 20.8271 1.40625 20.2764C1.40625 17.6631 4.75781 13.9014 10.4414 13.9014C16.1367 13.9014 19.4883 17.6631 19.4883 20.2764C19.4883 20.8271 19.2305 21.0264 18.3984 21.0264H2.49609Z" fill="currentColor"/>
</svg>
