<svg width="16" height="30" viewBox="0 0 16 30" fill="none" 
  xmlns="http://www.w3.org/2000/svg">
  <path fill-rule="evenodd" clip-rule="evenodd" d="M0.972656 6.5998C0.972656 6.15798 1.33083 5.7998 1.77266 5.7998H5.50599C5.94782 5.7998 6.30599 6.15798 6.30599 6.5998C6.30599 7.04163 5.94782 7.3998 5.50599 7.3998H1.77266C1.33083 7.3998 0.972656 7.04163 0.972656 6.5998Z" fill="#3E4C59"/>
  <path fill-rule="evenodd" clip-rule="evenodd" d="M0.972656 12.2004C0.972656 11.7586 1.33083 11.4004 1.77266 11.4004H5.50599C5.94782 11.4004 6.30599 11.7586 6.30599 12.2004C6.30599 12.6422 5.94782 13.0004 5.50599 13.0004H1.77266C1.33083 13.0004 0.972656 12.6422 0.972656 12.2004Z" fill="#3E4C59"/>
  <path fill-rule="evenodd" clip-rule="evenodd" d="M0.972656 17.8C0.972656 17.3582 1.33083 17 1.77266 17H5.50599C5.94782 17 6.30599 17.3582 6.30599 17.8C6.30599 18.2418 5.94782 18.6 5.50599 18.6H1.77266C1.33083 18.6 0.972656 18.2418 0.972656 17.8Z" fill="#3E4C59"/>
  <path fill-rule="evenodd" clip-rule="evenodd" d="M0.972656 23.4006C0.972656 22.9588 1.33083 22.6006 1.77266 22.6006H5.50599C5.94782 22.6006 6.30599 22.9588 6.30599 23.4006C6.30599 23.8424 5.94782 24.2006 5.50599 24.2006H1.77266C1.33083 24.2006 0.972656 23.8424 0.972656 23.4006Z" fill="#3E4C59"/>
  <path fill-rule="evenodd" clip-rule="evenodd" d="M0.972656 1.0002C0.972656 0.558368 1.33083 0.200195 1.77266 0.200195H14.8393C15.2812 0.200195 15.6393 0.558368 15.6393 1.0002V29.0002C15.6393 29.442 15.2812 29.8002 14.8393 29.8002H1.77266C1.33083 29.8002 0.972656 29.442 0.972656 29.0002V1.0002ZM2.57266 1.8002V28.2002H14.0393V1.8002H2.57266Z" fill="#3E4C59"/>
</svg>
