<svg width="32" height="32" viewBox="0 0 32 32" fill="none" xmlns="http://www.w3.org/2000/svg">
<path fill-rule="evenodd" clip-rule="evenodd" d="M15.5 2C15.8704 2 16.2105 2.20475 16.3838 2.53211L20.6524 10.5949L29.1644 12.0136C29.5274 12.0741 29.8278 12.329 29.9465 12.6772C30.0653 13.0255 29.9832 13.4108 29.7328 13.6805L23.5672 20.3203L24.9864 28.8356C25.0475 29.2024 24.9001 29.5728 24.6037 29.7973C24.3072 30.0217 23.9107 30.0631 23.5742 29.9048L15.5 26.1052L7.42582 29.9048C7.08937 30.0631 6.69284 30.0217 6.39639 29.7973C6.09993 29.5728 5.9525 29.2024 6.01363 28.8356L7.43284 20.3203L1.26723 13.6805C1.01686 13.4108 0.934785 13.0255 1.05354 12.6772C1.17229 12.329 1.47269 12.0741 1.83562 12.0136L10.3477 10.5949L14.6162 2.53211C14.7895 2.20475 15.1296 2 15.5 2Z" fill="currentColor" stroke="currentColor"/>
</svg>
