<svg width="29" height="28" viewBox="0 0 29 28" fill="none" xmlns="http://www.w3.org/2000/svg">
<path fill-rule="evenodd" clip-rule="evenodd" d="M14.5 0C14.8704 0 15.2105 0.204749 15.3838 0.532112L19.6524 8.59493L28.1644 10.0136C28.5274 10.0741 28.8278 10.329 28.9465 10.6772C29.0653 11.0255 28.9832 11.4108 28.7328 11.6805L22.5672 18.3203L23.9864 26.8356C24.0475 27.2024 23.9001 27.5728 23.6037 27.7973C23.3072 28.0217 22.9107 28.0631 22.5742 27.9048L14.5 24.1052L6.42582 27.9048C6.08937 28.0631 5.69284 28.0217 5.39639 27.7973C5.09993 27.5728 4.9525 27.2024 5.01363 26.8356L6.43284 18.3203L0.267228 11.6805C0.016863 11.4108 -0.0652155 11.0255 0.0535372 10.6772C0.17229 10.329 0.472689 10.0741 0.835622 10.0136L9.34768 8.59493L13.6162 0.532112C13.7895 0.204749 14.1296 0 14.5 0ZM14.5 3.13727L10.8838 9.96789C10.7379 10.2434 10.4719 10.4351 10.1644 10.4864L2.99699 11.681L8.23281 17.3195C8.4437 17.5467 8.53736 17.8587 8.48641 18.1644L7.29997 25.2831L14.0742 22.0952C14.3439 21.9683 14.6561 21.9683 14.9258 22.0952L21.7001 25.2831L20.5136 18.1644C20.4627 17.8587 20.5563 17.5467 20.7672 17.3195L26.0031 11.681L18.8356 10.4864C18.5281 10.4351 18.2621 10.2434 18.1162 9.96789L14.5 3.13727Z" fill="currentColor"/>
</svg>
