<svg width="26" height="32" viewBox="0 0 26 32" fill="none" 
  xmlns="http://www.w3.org/2000/svg">
  <path d="M22.625 27.875L23.5684 7.88672H24.9355C25.4961 7.88672 25.9473 7.42188 25.9473 6.86133C25.9473 6.30078 25.4961 5.82227 24.9355 5.82227H18.9609V3.77148C18.9609 1.81641 17.6348 0.544922 15.5293 0.544922H10.416C8.31055 0.544922 6.99805 1.81641 6.99805 3.77148V5.82227H1.05078C0.503906 5.82227 0.0253906 6.30078 0.0253906 6.86133C0.0253906 7.42188 0.503906 7.88672 1.05078 7.88672H2.41797L3.36133 27.8887C3.45703 29.8574 4.75586 31.1016 6.72461 31.1016H19.2617C21.2168 31.1016 22.5293 29.8438 22.625 27.875ZM9.18555 3.9082C9.18555 3.12891 9.75977 2.58203 10.5801 2.58203H15.3789C16.2129 2.58203 16.7871 3.12891 16.7871 3.9082V5.82227H9.18555V3.9082ZM6.92969 29.0508C6.13672 29.0508 5.54883 28.4492 5.50781 27.6562L4.55078 7.88672H21.3809L20.4785 27.6562C20.4375 28.4629 19.8633 29.0508 19.0566 29.0508H6.92969ZM17.0469 26.6445C17.498 26.6445 17.8398 26.2754 17.8535 25.7559L18.2637 11.3184C18.2773 10.7988 17.9219 10.416 17.457 10.416C17.0332 10.416 16.6777 10.8125 16.6641 11.3047L16.2539 25.7559C16.2402 26.248 16.582 26.6445 17.0469 26.6445ZM8.93945 26.6445C9.4043 26.6445 9.74609 26.248 9.73242 25.7559L9.32227 11.3047C9.30859 10.8125 8.93945 10.416 8.51562 10.416C8.05078 10.416 7.70898 10.7988 7.72266 11.3184L8.14648 25.7559C8.16016 26.2754 8.48828 26.6445 8.93945 26.6445ZM13.8203 25.7559V11.3047C13.8203 10.8125 13.4512 10.416 13 10.416C12.5488 10.416 12.166 10.8125 12.166 11.3047V25.7559C12.166 26.248 12.5488 26.6445 13 26.6445C13.4375 26.6445 13.8203 26.248 13.8203 25.7559Z" fill="currentColor"/>
</svg>
