<svg width="17" height="18" viewBox="0 0 17 18" fill="none" 
  xmlns="http://www.w3.org/2000/svg">
  <path d="M8.72656 8.87402C10.8799 8.87402 12.6113 6.98438 12.6113 4.65527C12.6113 2.37012 10.8711 0.533203 8.72656 0.533203C6.59082 0.533203 4.82422 2.3877 4.83301 4.66406C4.8418 6.99316 6.57324 8.87402 8.72656 8.87402ZM8.72656 7.17773C7.56641 7.17773 6.59082 6.08789 6.59082 4.66406C6.58203 3.30176 7.56641 2.22949 8.72656 2.22949C9.89551 2.22949 10.8623 3.28418 10.8623 4.65527C10.8623 6.07031 9.88672 7.17773 8.72656 7.17773ZM3.27734 17.0742H14.167C15.7314 17.0742 16.4961 16.5645 16.4961 15.4746C16.4961 12.9697 13.3848 9.84082 8.71777 9.84082C4.05957 9.84082 0.948242 12.9697 0.948242 15.4746C0.948242 16.5645 1.71289 17.0742 3.27734 17.0742ZM3.11035 15.3779C2.92578 15.3779 2.85547 15.3164 2.85547 15.167C2.85547 13.9014 4.98242 11.5371 8.71777 11.5371C12.4619 11.5371 14.5889 13.9014 14.5889 15.167C14.5889 15.3164 14.5186 15.3779 14.3252 15.3779H3.11035Z" fill="currentColor"/>
</svg>
