<svg width="26" height="27" viewBox="0 0 26 27" fill="none" xmlns="http://www.w3.org/2000/svg">
<path d="M13.0898 13.5254C16.4941 13.5254 19.2148 10.5723 19.2148 6.88086C19.2148 3.29883 16.4668 0.386719 13.0898 0.386719C9.71289 0.386719 6.9375 3.32617 6.95117 6.89453C6.96484 10.5723 9.68555 13.5254 13.0898 13.5254ZM13.0898 10.5586C11.4082 10.5586 9.98633 8.97266 9.98633 6.89453C9.97266 4.91211 11.4082 3.35352 13.0898 3.35352C14.7715 3.35352 16.1797 4.89844 16.1797 6.88086C16.1797 8.95898 14.7852 10.5586 13.0898 10.5586ZM4.68164 26.3496H21.4844C24 26.3496 25.2578 25.4883 25.2578 23.6836C25.2578 19.6094 20.2539 14.9199 13.0762 14.9199C5.91211 14.9199 0.908203 19.6094 0.908203 23.6836C0.908203 25.4883 2.16602 26.3496 4.68164 26.3496ZM4.6543 23.3828C4.39453 23.3828 4.29883 23.2734 4.29883 23.082C4.29883 21.2773 7.52539 17.8867 13.0762 17.8867C18.6406 17.8867 21.8672 21.2773 21.8672 23.082C21.8672 23.2734 21.7715 23.3828 21.5117 23.3828H4.6543Z" fill="currentColor"/>
</svg>
