<svg xmlns="http://www.w3.org/2000/svg" width="42.359" height="42.355" viewBox="0 0 42.359 42.355">
  <path id="staiy__fabric" d="M42.06,29.483a.681.681,0,0,0,.469-.193.657.657,0,0,0,0-.937L33.6,19.422a.663.663,0,1,0-.937.937l8.931,8.931A.681.681,0,0,0,42.06,29.483Zm-.469,13.038a.665.665,0,0,0,.937,0,.657.657,0,0,0,0-.937l-9.261-9.261a.663.663,0,0,0-.937.937Zm-15.532-19.5a.665.665,0,0,0,.937,0l9.261-9.261a.663.663,0,1,0-.937-.937l-9.261,9.261A.657.657,0,0,0,26.059,23.019Zm15.532-6.946a.665.665,0,0,0,.937,0,.657.657,0,0,0,0-.937L37.236,9.844a.663.663,0,1,0-.937.937Zm-2.646,6.615a.665.665,0,0,0,.937,0L51.128,11.443a.663.663,0,0,0-.937-.937L38.945,21.751a.657.657,0,0,0,0,.937Zm10.2,3.032a.657.657,0,0,0-.937,0l-9.261,9.261a.657.657,0,0,0,0,.937.665.665,0,0,0,.937,0l9.261-9.261A.657.657,0,0,0,49.144,25.721Zm-13.231,0a.657.657,0,0,0-.937,0l-9.261,9.261a.657.657,0,0,0,0,.937.665.665,0,0,0,.937,0l9.261-9.261A.657.657,0,0,0,35.913,25.721ZM12.828,36.25a.665.665,0,0,0,.937,0l9.261-9.261a.663.663,0,0,0-.937-.937l-9.261,9.261A.657.657,0,0,0,12.828,36.25ZM45.56,19.119a.657.657,0,0,0,0,.937l5.292,5.292a.665.665,0,0,0,.937,0,.657.657,0,0,0,0-.937L46.5,19.119A.657.657,0,0,0,45.56,19.119ZM28.829,29.511a.681.681,0,0,0,.469-.193.657.657,0,0,0,0-.937L20.367,19.45a.663.663,0,1,0-.937.937l8.931,8.931A.681.681,0,0,0,28.829,29.511Zm-.469,13.038a.665.665,0,0,0,.937,0,.657.657,0,0,0,0-.937L20.367,32.68a.663.663,0,1,0-.937.937Zm18.123-10.2a.663.663,0,0,0-.937.937l5.292,5.292a.665.665,0,0,0,.937,0,.657.657,0,0,0,0-.937ZM33.253,45.58a.663.663,0,0,0-.937.937l5.292,5.292a.665.665,0,0,0,.937,0,.657.657,0,0,0,0-.937ZM35.9,38.965a.657.657,0,0,0-.937,0L25.7,48.226a.657.657,0,0,0,0,.937.665.665,0,0,0,.937,0L35.9,39.9a.657.657,0,0,0,0-.937ZM46.484,45.58a.663.663,0,0,0-.937.937l5.292,5.292a.665.665,0,0,0,.937,0,.657.657,0,0,0,0-.937Zm2.646-6.615a.657.657,0,0,0-.937,0l-9.261,9.261a.657.657,0,0,0,0,.937.665.665,0,0,0,.937,0L49.13,39.9a.657.657,0,0,0,0-.937ZM20.036,45.58a.663.663,0,0,0-.937.937l5.292,5.292a.665.665,0,0,0,.937,0,.657.657,0,0,0,0-.937ZM15.461,16.432a.665.665,0,0,0,.937,0,.657.657,0,0,0,0-.937L10.775,9.871a.663.663,0,1,0-.937.937Zm7.222,22.533a.657.657,0,0,0-.937,0L10.5,50.211a.657.657,0,0,0,0,.937.665.665,0,0,0,.937,0L22.682,39.9A.657.657,0,0,0,22.682,38.965ZM12.815,23.033a.665.665,0,0,0,.937,0l9.261-9.261a.663.663,0,0,0-.937-.937L12.815,22.1A.657.657,0,0,0,12.815,23.033Zm15.863-6.615a.665.665,0,0,0,.937,0,.657.657,0,0,0,0-.937L23.992,9.858a.663.663,0,1,0-.937.937ZM15.447,29.648a.665.665,0,0,0,.937,0,.657.657,0,0,0,0-.937l-5.623-5.623a.663.663,0,1,0-.937.937Zm.138,13.093a.681.681,0,0,0,.469-.193.657.657,0,0,0,0-.937l-5.292-5.292a.663.663,0,0,0-.937.937l5.292,5.292A.681.681,0,0,0,15.585,42.741Z" transform="translate(-9.627 -9.648)" fill="#323536"/>
</svg>
