<?xml version="1.0" standalone="no"?>
<!DOCTYPE svg PUBLIC "-//W3C//DTD SVG 20010904//EN"
 "http://www.w3.org/TR/2001/REC-SVG-20010904/DTD/svg10.dtd">
<svg version="1.0" xmlns="http://www.w3.org/2000/svg"
 width="96.000000pt" height="96.000000pt" viewBox="0 0 96.000000 96.000000"
 preserveAspectRatio="xMidYMid meet">
<metadata>
Created by potrace 1.11, written by Peter Selinger 2001-2013
</metadata>
<g transform="translate(0.000000,96.000000) scale(0.100000,-0.100000)"
fill="#000000" stroke="none">
<path d="M381 929 c-63 -12 -159 -60 -210 -105 -60 -52 -115 -140 -136 -218
-27 -99 -18 -231 22 -316 92 -200 318 -309 526 -255 159 41 274 148 326 303
19 56 21 84 21 332 l0 270 -252 -1 c-139 -1 -273 -5 -297 -10z m175 -324 c64
-26 76 -100 32 -188 -39 -79 -143 -104 -199 -48 -24 24 -29 38 -29 76 0 47 26
111 54 134 15 12 81 40 99 41 4 0 23 -7 43 -15z m-235 -127 c-27 -133 -39
-156 -64 -116 -8 12 -5 41 10 107 11 50 18 93 15 96 -12 11 -79 4 -101 -11
-26 -19 -51 -71 -51 -109 0 -14 9 -34 20 -45 17 -17 28 -19 58 -14 l37 7 -24
-27 c-45 -48 -120 -27 -137 39 -10 39 2 105 24 134 40 54 78 71 162 71 l77 0
-26 -132z m399 125 c0 -5 -7 -52 -17 -106 -20 -115 -14 -128 41 -102 41 19 74
68 83 119 4 27 1 36 -15 45 -11 6 -28 8 -36 5 -21 -8 -21 10 0 30 39 39 104 5
104 -54 0 -40 -44 -122 -84 -157 -40 -36 -69 -46 -111 -41 -47 5 -51 25 -32
143 9 59 20 111 23 116 6 11 44 12 44 2z"/>
<path d="M470 567 c-48 -24 -74 -119 -46 -162 14 -21 24 -26 53 -23 47 4 74
40 81 106 4 41 1 53 -17 71 -24 24 -36 26 -71 8z"/>
</g>
</svg>
