<svg xmlns="http://www.w3.org/2000/svg" width="44.427" height="62.177" viewBox="0 0 44.427 62.177">
  <path id="staiy__cloths__long_dress" data-name="staiy__cloths_ long dress" d="M28.306,30.851a1.118,1.118,0,0,0-1.473.551c-1,2.2-1.309,5.951-1.651,10.311-.491,6.145-1.056,13.093-3.7,16.054a1.109,1.109,0,0,0,.833,1.845,1.11,1.11,0,0,0,.833-.372c3.154-3.511,3.749-10.861,4.27-17.348.327-3.973.625-7.722,1.458-9.567a1.118,1.118,0,0,0-.551-1.473ZM39.4,41.712c-.357-4.359-.655-8.109-1.651-10.311a1.112,1.112,0,1,0-2.023.922c.833,1.845,1.146,5.594,1.458,9.567.521,6.487,1.116,13.837,4.27,17.348a1.141,1.141,0,0,0,.833.372,1.083,1.083,0,0,0,.744-.283,1.107,1.107,0,0,0,.089-1.562c-2.648-2.961-3.214-9.909-3.7-16.054ZM54.12,59.894c-6.606-5.743-7.484-13.138-8.332-20.279C45,32.994,44.255,26.715,39,22.49a28.958,28.958,0,0,1,1.041-4.85,24.4,24.4,0,0,0,1.131-5.758,1.129,1.129,0,0,0-.922-1.1c-.06,0-1.294-.253-1.294-1.131V5.216a1.116,1.116,0,0,0-2.232,0V8.861a11.1,11.1,0,0,0-4.449,3.124A10.909,10.909,0,0,0,27.83,8.861V5.216a1.116,1.116,0,1,0-2.232,0V9.65c0,.878-1.25,1.116-1.294,1.116a1.106,1.106,0,0,0-.922,1.1,24.264,24.264,0,0,0,1.131,5.758,28.652,28.652,0,0,1,1.041,4.85c-5.252,4.225-6,10.5-6.785,17.125-.848,7.142-1.711,14.536-8.332,20.279a1.089,1.089,0,0,0-.387.848,1.1,1.1,0,0,0,.4.848c4.24,3.556,10.787,2.842,12.647,2.544,1.041.7,3.853,2.157,9.165,2.157s8.124-1.458,9.165-2.157c1.86.3,8.391,1.012,12.647-2.544a1.1,1.1,0,0,0,.4-.848,1.089,1.089,0,0,0-.387-.848ZM27.487,11.123a7.219,7.219,0,0,1,3.794,3.422,1.109,1.109,0,0,0,2.023,0A7.4,7.4,0,0,1,37.1,11.123a3.666,3.666,0,0,0,1.8,1.547,32.174,32.174,0,0,1-1.012,4.374,29.007,29.007,0,0,0-1.146,5.416,6.929,6.929,0,0,1-8.927,0,29.256,29.256,0,0,0-1.146-5.416,34.576,34.576,0,0,1-1.012-4.374,3.665,3.665,0,0,0,1.8-1.547ZM41.414,61.858a1.053,1.053,0,0,0-.967.268c-.015.015-2.276,1.934-8.138,1.934s-8.124-1.919-8.124-1.919a1.124,1.124,0,0,0-.982-.268c-.06,0-6.085,1.205-10.221-1.25,6.323-6.16,7.231-13.881,8.049-20.74.744-6.323,1.4-11.813,5.743-15.473a9.091,9.091,0,0,0,5.535,1.919,9.186,9.186,0,0,0,5.535-1.919c4.344,3.675,5,9.165,5.743,15.473.8,6.859,1.726,14.581,8.049,20.74-4.136,2.44-10.162,1.265-10.221,1.25Z" transform="translate(-10.05 -4.1)" fill="#323536"/>
</svg>
