<svg xmlns="http://www.w3.org/2000/svg" width="44.383" height="36" viewBox="0 0 44.383 36">
  <path id="staiy__cloths__beachwear" data-name="staiy__cloths_ beachwear" d="M45.262,27.286a.992.992,0,0,0-1.542,0c-.711.877-6.9,8.727-6.9,12.652a7.672,7.672,0,0,0,15.344,0C52.163,36.013,45.974,28.163,45.262,27.286ZM44.491,45.63A5.693,5.693,0,0,1,38.8,39.938c0-2.407,3.6-7.66,5.692-10.423,2.1,2.763,5.692,8.016,5.692,10.423A5.693,5.693,0,0,1,44.491,45.63Zm-10.364-5.1H30.013L27.8,27.191h.593a4.337,4.337,0,0,0,4.328-4.328V16.982h9.225a.984.984,0,1,0,0-1.968H9.748V13.59H43.507V24.333a.984.984,0,0,0,1.968,0V12.594a.982.982,0,0,0-.984-.984H8.764a.982.982,0,0,0-.984.984V41.515a.982.982,0,0,0,.984.984h15.4a.983.983,0,0,0,.972-.83L26.646,32.3l1.565,9.368a1,1,0,0,0,.972.83H34.14a.984.984,0,0,0,0-1.968Zm-8.49-14.383L23.325,40.531H9.748V16.982H25.638Zm1.98-9.166h3.13v5.881A2.353,2.353,0,0,1,28.4,25.211h-.783V16.982Z" transform="translate(-7.78 -11.61)" fill="#323536"/>
</svg>
