<svg xmlns="http://www.w3.org/2000/svg" width="56" height="31.064" viewBox="0 0 56 31.064">
  <g id="staiy__cloths__mask" data-name="staiy__cloths_ mask" transform="translate(-3.227 -12.93)">
    <path id="Pfad_575" data-name="Pfad 575" d="M45.292,29.051a1.4,1.4,0,0,0-.854-.067l-3.112.739A50,50,0,0,1,18.367,29.7l-3-.717a1.386,1.386,0,0,0-.854.067.98.98,0,0,0-.55.515c-.188.459.145.952.738,1.086l3,.717A52.855,52.855,0,0,0,29.89,32.792a52.524,52.524,0,0,0,12.1-1.4l3.112-.739c.594-.134.926-.627.753-1.086a.98.98,0,0,0-.55-.515Z" transform="translate(1.282 5.027)" fill="#323536"/>
    <path id="Pfad_576" data-name="Pfad 576" d="M58.631,14.782a3.961,3.961,0,0,0-6.714.013L47.7,21.574,33.021,17.29a6.452,6.452,0,0,0-3.563,0L14.769,21.574,10.55,14.8a3.961,3.961,0,0,0-6.856,3.962l9.724,18.934.026.051h.013a1.153,1.153,0,0,0,.257.3l.064.064.039.026a59.679,59.679,0,0,0,5.981,2.92C24.39,43,28.236,43.994,31.233,43.994s6.843-.99,11.422-2.946a63.33,63.33,0,0,0,5.981-2.92l.039-.026a.77.77,0,0,0,.077-.09A.936.936,0,0,0,49,37.755L58.76,18.77a3.958,3.958,0,0,0-.141-3.975ZM57,17.818,49.151,33.112V23.04l4.463-7.177A1.954,1.954,0,0,1,57,17.818ZM47.145,23.5V36.662c-1.839.99-10.187,5.325-15.911,5.325s-14.072-4.335-15.911-5.325V23.5L30.011,19.22a4.341,4.341,0,0,1,2.431,0L47.132,23.5ZM13.328,23.04V33.112L5.482,17.818a1.958,1.958,0,0,1,.064-1.968,1.957,1.957,0,0,1,3.319.013l4.463,7.177Z" transform="translate(0)" fill="#323536"/>
    <path id="Pfad_577" data-name="Pfad 577" d="M44.816,26.286l-13.144-.493c-1.129-.045-2.287-.045-3.431,0l-13.26.493a1,1,0,0,0-1.071.918,1.034,1.034,0,0,0,1.129.829H15.1l13.26-.493q1.607-.067,3.214,0l13.144.493h.058A1.044,1.044,0,0,0,45.9,27.2a.789.789,0,0,0-.29-.627,1.3,1.3,0,0,0-.782-.28Z" transform="translate(1.282 3.869)" fill="#323536"/>
    <path id="Pfad_578" data-name="Pfad 578" d="M27.692,21.095l-12.927,2.5c-.608.112-.97.594-.825,1.053a1.11,1.11,0,0,0,1.086.661,1.141,1.141,0,0,0,.275-.022l12.927-2.5a9.454,9.454,0,0,1,3.46,0l12.8,2.5a1.393,1.393,0,0,0,.854-.1.993.993,0,0,0,.521-.538.661.661,0,0,0-.13-.661,1.159,1.159,0,0,0-.695-.4l-12.8-2.5a12.01,12.01,0,0,0-4.56,0Z" transform="translate(1.282 2.531)" fill="#323536"/>
  </g>
</svg>
