<svg xmlns="http://www.w3.org/2000/svg" width="37.497" height="50" viewBox="0 0 37.497 50">
  <path id="staiy__cloths__top" data-name="staiy__cloths_ top" d="M48.772,23.752a3.13,3.13,0,0,1-3.126-3.126V8.137A1.045,1.045,0,0,0,44.6,7.09H38.348A1.045,1.045,0,0,0,37.3,8.137c0,4.424-2.456,7.284-6.252,7.284S24.8,12.56,24.8,8.137A1.045,1.045,0,0,0,23.751,7.09H17.5a1.045,1.045,0,0,0-1.047,1.047v12.49a3.13,3.13,0,0,1-3.126,3.126A1.045,1.045,0,0,0,12.28,24.8V56.043a1.045,1.045,0,0,0,1.047,1.047h35.4a1.045,1.045,0,0,0,1.047-1.047V24.8a1.045,1.045,0,0,0-1.047-1.047ZM24.825,14.584a8.159,8.159,0,0,0,12.5,0v.837a6.252,6.252,0,0,1-12.5,0ZM47.739,55H14.415V25.734a5.211,5.211,0,0,0,4.159-5.107V9.169h4.159v6.252a8.331,8.331,0,1,0,16.662,0V9.169h4.159V20.626a5.223,5.223,0,0,0,4.159,5.107V55Z" transform="translate(-12.28 -7.09)" fill="#323536"/>
</svg>
