<svg xmlns="http://www.w3.org/2000/svg" width="41.843" height="58.58" viewBox="0 0 41.843 58.58">
  <path id="staiy__cloths__short_dress" data-name="staiy__cloths_ short_dress" d="M51.081,57.029,37.649,28.09l3.029-10.081a1.032,1.032,0,0,0-.435-1.178,8.412,8.412,0,0,1-3.7-5.51V5.152a1.052,1.052,0,0,0-2.1,0v5.777a6.431,6.431,0,0,1-8.357,0V5.152a1.052,1.052,0,1,0-2.1,0v6.155a8.512,8.512,0,0,1-3.7,5.51,1.051,1.051,0,0,0-.435,1.178l3.029,10.081L9.439,57.015a1.024,1.024,0,0,0,.182,1.15c3.449,3.688,6.7,3.043,8.847,2.622a8.718,8.718,0,0,1,1.332-.2,10.876,10.876,0,0,1,3.954.855,17.768,17.768,0,0,0,13.012,0,10.94,10.94,0,0,1,3.954-.855,7.253,7.253,0,0,1,1.332.2c2.145.421,5.4,1.066,8.847-2.622a1.028,1.028,0,0,0,.182-1.15ZM22.058,18.135a10.513,10.513,0,0,0,3.561-4.893,8.7,8.7,0,0,0,9.254,0,10.61,10.61,0,0,0,3.561,4.893l-2.776,9.254a17.125,17.125,0,0,1-5.426.785,17.125,17.125,0,0,1-5.426-.785L22.03,18.135ZM42.444,58.754a8.9,8.9,0,0,0-1.739-.238,12.84,12.84,0,0,0-4.655.981,15.559,15.559,0,0,1-5.8,1.122,15.224,15.224,0,0,1-5.8-1.122,13.14,13.14,0,0,0-4.655-.981,8.9,8.9,0,0,0-1.739.238c-1.865.365-3.982.785-6.422-1.5l12.9-27.776a19.5,19.5,0,0,0,5.721.8,19.5,19.5,0,0,0,5.721-.8l12.9,27.776c-2.454,2.285-4.557,1.879-6.422,1.5Z" transform="translate(-9.339 -4.1)" fill="#323536"/>
</svg>
