<svg xmlns="http://www.w3.org/2000/svg" width="43.503" height="50" viewBox="0 0 43.503 50">
  <path id="staiy__cloths__sweatshirt" data-name="staiy__cloths_ sweatshirt" d="M41.913,8.248l-2.3-.393a1.089,1.089,0,0,0-.918.291h-.015c-.073.087-.117.175-.189.248-1.588,1.559-4.444,2-6.673,2s-5.07-.452-6.658-2c-.073-.073-.131-.16-.2-.219H24.94a1.037,1.037,0,0,0-.918-.321l-2.3.393A14.015,14.015,0,0,0,10.08,22.088v34.66a1.094,1.094,0,0,0,1.093,1.093h8.7a1.1,1.1,0,0,0,1.093-1.093V53.484H42.7v3.263a1.091,1.091,0,0,0,1.093,1.093h8.7a1.094,1.094,0,0,0,1.093-1.093V22.088A14.015,14.015,0,0,0,41.942,8.248Zm9.47,47.422H44.856V53.5h1.093a1.091,1.091,0,0,0,1.093-1.093V19.786a1.093,1.093,0,1,0-2.185,0V51.314H18.778V19.786a1.093,1.093,0,1,0-2.185,0V52.392a1.091,1.091,0,0,0,1.093,1.093h1.093v2.171H12.251V22.088a11.853,11.853,0,0,1,9.849-11.7l1.938-.335a15.38,15.38,0,0,0,7.78,2.127,15.38,15.38,0,0,0,7.78-2.127l1.938.335a11.853,11.853,0,0,1,9.849,11.7Z" transform="translate(-10.08 -7.841)" fill="#323536"/>
</svg>
