<svg xmlns="http://www.w3.org/2000/svg" width="28.571" height="50" viewBox="0 0 28.571 50">
  <path id="staiy__cloths__trousers" data-name="staiy__cloths_ trousers" d="M40.736,46.955h-.024L39.839,4.983a.884.884,0,0,0-.9-.873h-23.2a.891.891,0,0,0-.9.873l-.873,41.972h-.024a.9.9,0,0,0-.9.9v5.36a.9.9,0,0,0,.9.9H24.656a.9.9,0,0,0,.9-.9v-5.36a.876.876,0,0,0-.766-.861l2.548-17.815,2.548,17.815a.876.876,0,0,0-.766.861v5.36a.9.9,0,0,0,.9.9H40.724a.9.9,0,0,0,.9-.9v-5.36a.9.9,0,0,0-.9-.9ZM34.491,5.893H38.08l.036,1.783H34.491V5.893Zm-7.143,0h5.36V7.675h-5.36V5.893Zm0,3.565H29.13v4.463a2.683,2.683,0,0,1-1.783,2.525V9.458Zm-5.36-3.565h3.565V7.675H21.988V5.893Zm-5.372,0H20.2V7.675H16.58l.036-1.783ZM23.77,52.315H14.845V48.75H23.77Zm4.451-29.588a.895.895,0,0,0-1.771,0L22.993,46.955H15.754l.6-28.607c4-.359,5.432-4.092,5.635-6.126a.887.887,0,0,0-.8-.969.905.905,0,0,0-.981.8c-.024.179-.467,4.056-3.817,4.511l.144-7.095h9.021v8.04a.9.9,0,0,0,.9.9,4.463,4.463,0,0,0,4.463-4.463V9.482h7.239l.144,7.095c-3.35-.455-3.793-4.331-3.817-4.511a.889.889,0,0,0-1.771.168c.2,2.034,1.639,5.767,5.635,6.126l.6,28.607H31.7L28.245,22.739ZM39.839,52.315H30.913V48.75h8.926Z" transform="translate(-13.05 -4.11)" fill="#323536"/>
</svg>
