<svg xmlns="http://www.w3.org/2000/svg" width="42.427" height="59.413" viewBox="0 0 42.427 59.413">
  <path id="staiy__cloths__coat" data-name="staiy__cloths_ coat" d="M33.411,36.99a1.066,1.066,0,1,0,0-2.133,1.066,1.066,0,1,0,0,2.133Zm17.2-17.842a9.48,9.48,0,0,0-3.142-6.455L41.543,7.362s-.043-.028-.071-.043-.014-.028-.028-.043L37.207,4.3s-.071-.028-.1-.043c-.057-.028-.128-.057-.2-.085a1.133,1.133,0,0,0-.213-.043c-.043,0-.071-.014-.1-.014H25.989a.8.8,0,0,1-.1.014.57.57,0,0,0-.213.043c-.071.028-.128.057-.2.085-.028.014-.071.028-.1.043L21.141,7.276a.2.2,0,0,1-.028.043c-.028.014-.043.028-.071.043l-5.929,5.331a9.509,9.509,0,0,0-3.142,6.455L10.08,47.539a1.081,1.081,0,0,0,.284.8,1.068,1.068,0,0,0,.768.341h5.3V62.467A1.065,1.065,0,0,0,17.5,63.533H45.083a1.065,1.065,0,0,0,1.066-1.066V48.676h5.3a1.044,1.044,0,0,0,.768-.341,1.081,1.081,0,0,0,.284-.8L50.613,19.148ZM37.562,7.134,39.993,8.84l.7,1.535L38.9,13.063a1.063,1.063,0,0,0-.128.924l.91,2.73a62.926,62.926,0,0,1-6.767,9.127l-.427-.768A49.019,49.019,0,0,0,37.562,7.148Zm-2.076-.91A47.776,47.776,0,0,1,31.292,22.7,47.633,47.633,0,0,1,27.1,6.224h8.4ZM22.591,8.84l2.431-1.706a48.892,48.892,0,0,0,5.331,18.454h0c.384.725.839,1.535,1.336,2.332A57.813,57.813,0,0,1,22.9,16.7l.91-2.73a1.063,1.063,0,0,0-.128-.924l-1.791-2.687.7-1.535ZM35.529,61.387H18.554V50.781h7.421a1.065,1.065,0,0,0,1.066-1.066V43.345a1.065,1.065,0,0,0-1.066-1.066H18.554V24.251a1.066,1.066,0,0,0-2.133,0V46.53H12.256l1.82-27.254a7.348,7.348,0,0,1,2.445-5.019L19.9,11.214,21.639,13.8l-.9,2.687a1.036,1.036,0,0,0,.085.867c.284.5,6.9,11.914,14.715,16.023V61.387ZM18.554,48.662V44.426h6.369v4.237ZM44.017,61.387H37.647V50.781h6.369Zm0-13.791h0v1.066H37.647V44.426h6.369V47.61Zm2.118-1.052V24.266a1.066,1.066,0,0,0-2.133,0V42.293H37.633V32.739a1.078,1.078,0,0,0-.043-.227.211.211,0,0,0-.028-.128.812.812,0,0,0-.185-.3.051.051,0,0,0-.028-.043,38.57,38.57,0,0,1-3.3-4.336A61.4,61.4,0,0,0,41.714,17.37,1.031,1.031,0,0,0,41.8,16.5l-.9-2.687,1.734-2.588,3.384,3.042a7.348,7.348,0,0,1,2.445,5.019l1.82,27.254H46.121ZM29.16,34.872a1.066,1.066,0,1,0,1.066,1.066A1.065,1.065,0,0,0,29.16,34.872Zm0,6.369a1.066,1.066,0,1,0,1.066,1.066A1.065,1.065,0,0,0,29.16,41.241ZM33.4,43.359a1.066,1.066,0,1,0,0-2.133,1.066,1.066,0,1,0,0,2.133Z" transform="translate(-10.079 -4.12)" fill="#323536"/>
</svg>
