<svg xmlns="http://www.w3.org/2000/svg" width="58.362" height="50" viewBox="0 0 58.362 50">
  <path id="staiy__cloths__shirt" data-name="staiy__cloths_ shirt" d="M62.127,21.984,49.633,9.49l-.056-.028a1.265,1.265,0,0,0-.223-.154.607.607,0,0,0-.1-.056.043.043,0,0,1-.028-.014c-1.661-.558-6-2-6.226-2.08a1.043,1.043,0,0,0-1.1.265,11.708,11.708,0,0,1-8.613,3.839h0a11.708,11.708,0,0,1-8.613-3.839,1.053,1.053,0,0,0-1.089-.279l-6.254,2.08s-.028,0-.028.014a.177.177,0,0,0-.1.056.8.8,0,0,0-.223.154.106.106,0,0,0-.056.028L4.416,21.984a1.035,1.035,0,0,0-.154,1.27l6.254,10.414a1.035,1.035,0,0,0,.893.5.938.938,0,0,0,.335-.056L16.617,32.5V56.046a1.046,1.046,0,0,0,1.047,1.047H48.907a1.046,1.046,0,0,0,1.047-1.047V32.5l4.886,1.619a.938.938,0,0,0,.335.056,1.035,1.035,0,0,0,.893-.5l6.254-10.414a1.035,1.035,0,0,0-.154-1.27ZM16.6,30.3l-4.746,1.577-5.4-9L16.6,12.728V30.29ZM47.846,55.013H18.684V10.97L23.6,9.336a13.668,13.668,0,0,0,9.66,4.007h0a13.727,13.727,0,0,0,9.66-4.007l4.914,1.633V55.013Zm6.826-23.132L49.926,30.3V12.728L60.075,22.877Z" transform="translate(-4.112 -7.094)" fill="#323536"/>
</svg>
