<svg xmlns="http://www.w3.org/2000/svg" width="31.85" height="50.811" viewBox="0 0 31.85 50.811">
  <g id="staiy__cloths__yoga_pants" data-name="staiy__cloths_ yoga_pants" transform="translate(-12.88 -5.79)">
    <path id="Pfad_579" data-name="Pfad 579" d="M16.95,5.99Z" transform="translate(1.278 0.063)" fill="#323536"/>
    <path id="Pfad_580" data-name="Pfad 580" d="M18.451,6.289l-.289.447C15.1,11.309,12.88,17.616,12.88,21.728V55.589A1.018,1.018,0,0,0,13.918,56.6h10.84a1.021,1.021,0,0,0,1.012-.893l3.048-24.374L31.84,55.707a1.031,1.031,0,0,0,1.012.893h10.84a1.018,1.018,0,0,0,1.038-1.012V21.715c0-4.113-2.221-10.42-5.282-14.992l-.394-.578A1.015,1.015,0,0,0,37.7,5.974a2.865,2.865,0,0,1-.486.263,16.853,16.853,0,0,1-16.832,0s-.342-.171-.46-.25a1.03,1.03,0,0,0-1.367.171C18.5,6.224,18.477,6.263,18.451,6.289ZM19.5,8.444l.158-.25.263.145a18.926,18.926,0,0,0,17.778,0l.263-.145.158.263a31.912,31.912,0,0,1,4.454,11.76l.053.434-.434-.066a8.848,8.848,0,0,1-5.808-3.521.945.945,0,0,0-.67-.394,1.008,1.008,0,0,0-.762.2,1.023,1.023,0,0,0-.2,1.432,10.83,10.83,0,0,0,7.634,4.4l.289.026V54.564H33.772L29.83,22.95a1.021,1.021,0,0,0-2.024-.013L23.852,54.551H14.943V22.714l.289-.026a10.8,10.8,0,0,0,7.634-4.4,1.051,1.051,0,0,0,.2-.762,1.016,1.016,0,0,0-1.826-.46,8.848,8.848,0,0,1-5.808,3.521L15,20.651l.053-.434a31.327,31.327,0,0,1,4.467-11.76Z" transform="translate(0 0)" fill="#323536"/>
  </g>
</svg>
