<svg xmlns="http://www.w3.org/2000/svg" width="43.147" height="38.114" viewBox="0 0 43.147 38.114">
  <path id="staiy__cloths_socks" d="M50.744,36.393a7.221,7.221,0,0,0-5.211-2.209h0L31.2,34.211,24.45,11.3a.985.985,0,0,0-1.2-.675L10.391,13.988a1.019,1.019,0,0,0-.608.463.942.942,0,0,0-.093.754l6.547,24.1a11.726,11.726,0,0,0,11.48,9.4H45.281a7.456,7.456,0,0,0,7.512-7.036A7.185,7.185,0,0,0,50.744,36.393ZM11.859,15.642,22.81,12.785l.635,2.143L12.481,17.916l-.622-2.275ZM27.479,46.71a9.768,9.768,0,0,1-9.324-7.87l-.185-.688a8.266,8.266,0,0,1,1.614-.185,7.97,7.97,0,0,1,7.962,7.962c0,.265-.026.529-.053.794Zm17.789,0H29.463c.026-.265.066-.529.066-.794a9.96,9.96,0,0,0-9.946-9.946,10.411,10.411,0,0,0-2.129.251L13,19.808l11-3,5.5,18.662a.992.992,0,0,0,.952.714h0l15.078-.026A5.264,5.264,0,0,1,50.8,41.591,5.442,5.442,0,0,1,45.268,46.7Z" transform="translate(-9.649 -10.592)" fill="#323536"/>
</svg>
