<svg xmlns="http://www.w3.org/2000/svg" width="50" height="54.176" viewBox="0 0 50 54.176">
  <path id="staiy__cloths__sweater" data-name="staiy__cloths_ sweater" d="M53.542,13.389a1.077,1.077,0,0,0-.293-.321L42.83,5.778a1.081,1.081,0,0,0-.461-.168h-.126a1.212,1.212,0,0,0-.391.07.177.177,0,0,0-.084.014,22.966,22.966,0,0,1-8.925,1.969,22.966,22.966,0,0,1-8.925-1.969.177.177,0,0,1-.084-.014.926.926,0,0,0-.391-.07h-.126a1.152,1.152,0,0,0-.461.168L12.439,13.068a.92.92,0,0,0-.293.321c-.182.293-4.316,7.556-4.316,39.092a3.133,3.133,0,0,0,2.081,2.933v3.324a1.046,1.046,0,0,0,1.047,1.047h4.162a1.047,1.047,0,0,0,0-2.095H11.992V55.61h1.034a1.047,1.047,0,0,0,0-2.095H10.945A1.055,1.055,0,0,1,9.9,52.468c0-28.142,3.366-36.606,3.939-37.849l5.2-3.631c1.425,3.2,5.251,9.176,13.8,9.176s12.374-5.992,13.8-9.176l5.2,3.631c.587,1.229,3.939,9.469,3.939,37.849a1.046,1.046,0,0,1-1.047,1.047H52.634a1.047,1.047,0,0,0,0,2.095h1.034v2.081H50.539a1.047,1.047,0,0,0,0,2.095H54.7a1.046,1.046,0,0,0,1.047-1.047V55.414a3.114,3.114,0,0,0,2.081-2.933c0-31.536-4.134-38.8-4.316-39.092Zm-20.7-3.631a24.7,24.7,0,0,0,7.807-1.369,8.262,8.262,0,0,1-15.6.014,24.215,24.215,0,0,0,7.793,1.369Zm0,8.338a12.767,12.767,0,0,1-12.053-8.31l2.053-1.439c.866,2.626,3.408,7.668,10,7.668s9.134-5.042,10-7.668L44.9,9.786A12.783,12.783,0,0,1,32.844,18.1ZM49.52,53.333A3.114,3.114,0,0,0,51.6,50.4c0-1.844-.14-4.26-.321-7.332-.307-5.265-.726-12.472-.726-21.858a1.047,1.047,0,0,0-2.095,0c0,9.441.419,16.69.726,21.969.182,3.031.321,5.419.321,7.207a1.046,1.046,0,0,1-1.047,1.047H17.215a1.046,1.046,0,0,1-1.047-1.047c0-1.788.14-4.176.321-7.207.307-5.293.726-12.528.726-21.969a1.047,1.047,0,1,0-2.095,0c0,9.385-.419,16.592-.726,21.858-.182,3.059-.321,5.489-.321,7.332a3.133,3.133,0,0,0,2.081,2.933v1.229a3.132,3.132,0,0,0,3.128,3.128H46.377a3.132,3.132,0,0,0,3.128-3.128V53.319Zm-2.081,1.243a1.046,1.046,0,0,1-1.047,1.047H19.31a1.046,1.046,0,0,1-1.047-1.047V53.529H47.439Z" transform="translate(-7.83 -5.61)" fill="#323536"/>
</svg>
