<svg xmlns="http://www.w3.org/2000/svg" width="29.196" height="58.379" viewBox="0 0 29.196 58.379">
  <path id="staiy__cloths__jeans" data-name="staiy__cloths_ jeans" d="M43.728,19.588,41.647,5a1.039,1.039,0,0,0-1.034-.894H17.675A1.039,1.039,0,0,0,16.641,5L14.56,19.588V61.441a1.046,1.046,0,0,0,1.048,1.048h8.34a1.039,1.039,0,0,0,1.034-.894L29.158,31.5l4.177,30.09a1.039,1.039,0,0,0,1.034.894h8.34a1.046,1.046,0,0,0,1.048-1.048V19.588ZM29.144,6.191H39.705L40,8.273H29.144V6.191Zm0,4.163h2.081v3.129a3.132,3.132,0,0,1-2.081,2.948ZM18.583,6.191h8.479V8.273H18.29l.293-2.081Zm23.064,54.2H35.263L30.178,23.765a1.045,1.045,0,0,0-2.067,0L23.026,60.393H16.641V20.175l3.87-3.87a1.047,1.047,0,1,0-1.481-1.481L17.075,16.78,18,10.354h9.066v7.292a1.046,1.046,0,0,0,1.048,1.048,5.211,5.211,0,0,0,5.211-5.211V10.354h6.985l.922,6.426-1.956-1.956a1.047,1.047,0,0,0-1.481,1.481l3.87,3.87V60.393Z" transform="translate(-14.56 -4.11)" fill="#323536"/>
</svg>
