<svg xmlns="http://www.w3.org/2000/svg" width="47.701" height="39.786" viewBox="0 0 47.701 39.786">
  <path id="staiy__cloths__shorts" data-name="staiy__cloths_ shorts" d="M50.834,18.744V11.069a1,1,0,0,0-1-1H12.06a1,1,0,0,0-1,1v7.675c-2.7,4.29-3.971,10.966-3.971,14.2V45.872a1.041,1.041,0,0,0,.227.64c.12.133,2.878,3.344,10.7,3.344S28.3,47.871,28.582,47.645a.912.912,0,0,0,.333-.493l2.025-6.769,2.025,6.769a.963.963,0,0,0,.333.493c.28.227,2.985,2.212,10.566,2.212s10.593-3.2,10.7-3.344a.987.987,0,0,0,.227-.64V32.948c0-3.238-1.266-9.913-3.984-14.2Zm-5.969-6.675h3.971v5.969H44.864Zm-3.971,0h1.985v7.955H40.894Zm-11.925,0h9.94v5.969h-9.94Zm0,7.955h3.971v7.955H28.969ZM23,12.069H26.97v5.969H23Zm-3.971,0h1.985v7.955H19.029Zm-5.969,0H17.03v5.969H13.059ZM52.832,45.446c-.746.64-3.344,2.412-8.954,2.412s-8.354-1.213-9.1-1.626L31.9,36.639a.983.983,0,0,0-.946-.706,1,1,0,0,0-.946.706L27.13,46.232c-.759.426-3.4,1.626-9.1,1.626s-8.208-1.785-8.954-2.412V33.894a11.487,11.487,0,0,0,9.913-8.661.994.994,0,0,0-1.932-.466,9.461,9.461,0,0,1-7.928,7.1A30.052,30.052,0,0,1,12.62,20.037h4.41v1a1,1,0,0,0,1,1H22a1,1,0,0,0,1-1v-1H26.97v8.954a1,1,0,0,0,1,1h5.969a1,1,0,0,0,1-1V20.037h3.971v1a1,1,0,0,0,1,1h3.971a1,1,0,0,0,1-1v-1h4.41a30.052,30.052,0,0,1,3.491,11.832,9.479,9.479,0,0,1-7.941-7.1.994.994,0,0,0-1.932.466,11.487,11.487,0,0,0,9.913,8.661V45.446ZM30.954,13.561a1.492,1.492,0,1,0,1.492,1.492A1.49,1.49,0,0,0,30.954,13.561Z" transform="translate(-7.09 -10.07)" fill="#323536"/>
</svg>
