<svg xmlns="http://www.w3.org/2000/svg" width="58.332" height="50" viewBox="0 0 58.332 50">
  <path id="staiy__cloths__skirt" data-name="staiy__cloths_ skirt" d="M62.347,48.831,47.858,15.707V9.677A1.045,1.045,0,0,0,46.811,8.63H19.732a1.045,1.045,0,0,0-1.047,1.047v6.03L4.2,48.831a1.028,1.028,0,0,0,.181,1.117,14.786,14.786,0,0,0,9.757,4.495c1.033.782,4.648,3.085,11.628,3.141a20.814,20.814,0,0,0,7.51,1.047,20.814,20.814,0,0,0,7.51-1.047c6.979-.056,10.595-2.345,11.628-3.141a14.7,14.7,0,0,0,9.757-4.495,1.028,1.028,0,0,0,.181-1.117ZM20.778,10.71h25v4.16h-25V10.71ZM52.814,52.321,44.7,21.9a1.051,1.051,0,0,0-1.27-.74,1.039,1.039,0,0,0-.74,1.27L50.845,53c-1.089.726-4.09,2.289-9.352,2.457L37.445,22.044a1.041,1.041,0,0,0-2.066.251l4.062,33.543a22.082,22.082,0,0,1-6.156.7,22.082,22.082,0,0,1-6.156-.7L31.192,22.3a1.041,1.041,0,1,0-2.066-.251L25.078,55.461C19.8,55.294,16.814,53.717,15.725,53l8.152-30.57a1.039,1.039,0,1,0-2.01-.53l-8.11,30.416a12.784,12.784,0,0,1-7.342-3.308l14-32.063H46.127L60.156,49a12.784,12.784,0,0,1-7.342,3.308Z" transform="translate(-4.106 -8.63)" fill="#323536"/>
</svg>
