<svg xmlns="http://www.w3.org/2000/svg" width="50" height="61.37" viewBox="0 0 50 61.37">
  <path id="staiy__cloths_hoodie" d="M52.9,13.27l-3.516-1.75c-.639-3.318-5.4-5.616-5.967-5.875h0c-1.476-.761-4.338-1.324-9.848-1.324S25.2,4.9,23.719,5.644h0c-.578.274-5.327,2.557-5.967,5.875l-3.516,1.75A10.324,10.324,0,0,0,8.59,22.417V57.79a3.364,3.364,0,0,0,2.268,3.2V64.5A1.14,1.14,0,0,0,12,65.644h4.536a1.142,1.142,0,0,0,0-2.283H13.126V61.185h1.142a1.142,1.142,0,1,0,0-2.283H11.923a1.136,1.136,0,0,1-1.065-1.142V22.417a8.014,8.014,0,0,1,4.384-7.108l2.785-1.385c.959,2.329,3.927,4.521,8.737,5.6v8.645a1.142,1.142,0,0,0,2.283,0v-8.25a34.923,34.923,0,0,0,4.551.3,32.065,32.065,0,0,0,4.536-.3v8.25a1.142,1.142,0,1,0,2.283,0V19.525c4.81-1.081,7.778-3.272,8.737-5.6l2.77,1.385a8.051,8.051,0,0,1,4.4,7.123V57.806a1.147,1.147,0,0,1-1.065,1.142H52.913a1.142,1.142,0,0,0,0,2.283h1.142v2.177H50.645a1.142,1.142,0,0,0,0,2.283h4.536a1.14,1.14,0,0,0,1.142-1.142V61.032a3.393,3.393,0,0,0,2.268-3.2V22.417a10.342,10.342,0,0,0-5.647-9.148Zm-32.968-1c0-1.111,1.172-2.268,2.4-3.151.518,3.044,2.679,6.012,6.073,8.417-5.54-.959-8.478-3.379-8.478-5.251Zm13.623,5.571c-5.571-2.5-9.026-6.3-9.087-10.015a.42.42,0,0,1,.122-.091c.015,0,.046-.03.076-.03.015,0,.03-.03.061-.046.791-.426,3.212-1.081,8.843-1.081s8.052.654,8.843,1.081c.015,0,.03.03.061.046.015,0,.046.03.076.046a.33.33,0,0,1,.107.091c-.061,3.714-3.516,7.5-9.087,10.015Zm5.16-.32c3.394-2.39,5.556-5.358,6.073-8.417,1.248.913,2.4,2.085,2.4,3.166,0,1.872-2.922,4.292-8.478,5.251Zm13.014,37.9V26.177a1.142,1.142,0,0,0-2.283,0V55.416A1.14,1.14,0,0,1,48.3,56.557H18.8a1.14,1.14,0,0,1-1.142-1.142V26.177a1.142,1.142,0,0,0-2.283,0V55.416a3.414,3.414,0,0,0,2.268,3.2v1.355a3.414,3.414,0,0,0,3.409,3.409H46.048a3.414,3.414,0,0,0,3.409-3.409V58.612a3.393,3.393,0,0,0,2.268-3.2ZM47.19,59.967a1.14,1.14,0,0,1-1.142,1.142H21.071a1.14,1.14,0,0,1-1.142-1.142V58.825H47.19Z" transform="translate(-8.59 -4.32)" fill="#323536"/>
</svg>
