<svg xmlns="http://www.w3.org/2000/svg" width="41.728" height="50" viewBox="0 0 41.728 50">
  <path id="staiy__cloths__underwear" data-name="staiy__cloths_ underwear" d="M17.531,28.824a8.961,8.961,0,0,0,1.029.053,9.307,9.307,0,0,0,9.314-8.483h4.38c.026.251.04.488.079.752a9.323,9.323,0,0,0,8.153,7.691,8.96,8.96,0,0,0,1.029.053,9.338,9.338,0,0,0,8.1-14.011,1.012,1.012,0,0,0-.831-.488V7.029a.989.989,0,0,0-1.979,0v7.361H37.57a5.431,5.431,0,0,0-3.879,1.649,5.223,5.223,0,0,0-1.306,2.375H27.795a5.307,5.307,0,0,0-5.211-4.024H13.322V7.029a.989.989,0,1,0-1.979,0v7.361a.933.933,0,0,0-.818.488A9.231,9.231,0,0,0,9.4,21.132a9.452,9.452,0,0,0,8.153,7.691Zm16.636-9.011A3.256,3.256,0,0,1,35.09,17.4a3.371,3.371,0,0,1,2.454-1.042H48.138a7.333,7.333,0,0,1-1.728,8.654,7.281,7.281,0,0,1-5.739,1.834A7.435,7.435,0,0,1,34.246,20.8a8.7,8.7,0,0,1-.106-.989h0ZM11.95,16.357H22.57a3.309,3.309,0,0,1,3.364,3.179,7.351,7.351,0,0,1-2.454,5.475,7.266,7.266,0,0,1-5.739,1.834A7.346,7.346,0,0,1,11.95,16.357ZM49.932,33.2H10.169a1,1,0,0,0-.989.989v4.2a1,1,0,0,0,.989.989h1.873c8.061,0,14.881,7.177,14.881,15.673a1,1,0,0,0,.989.989h4.578a1,1,0,0,0,.989-.989c0-8.641,6.438-15.673,14.354-15.673h2.084a1,1,0,0,0,.989-.989v-4.2a1,1,0,0,0-.989-.989Zm-.989,4.2H47.848c-8.707,0-15.831,7.388-16.319,16.662H28.877C28.362,44.932,20.869,37.4,12.043,37.4h-.884V35.182H48.943Z" transform="translate(-9.18 -6.04)" fill="#323536"/>
</svg>
