<svg xmlns="http://www.w3.org/2000/svg" width="60" height="32.41" viewBox="0 0 60 32.41">
  <path id="staiy__hanger" d="M57.522,33.314l-24.59-8.781a3.764,3.764,0,0,1,1.948-2.962,4.743,4.743,0,0,0,2.767-4.481,4.559,4.559,0,0,0-9.119,0H30.4a2.689,2.689,0,1,1,5.378.052,2.907,2.907,0,0,1-1.637,2.715,5.686,5.686,0,0,0-3.079,4.611L6.3,33.3c-1.026.338-4.4,1.624-4.4,3.676,0,3.351,2.169,3.637,4.6,3.637h4.754V44a.931.931,0,0,0,.935.935h3.7A.931.931,0,0,0,16.825,44v-3.39H46.975V44a.931.931,0,0,0,.935.935h3.7A.931.931,0,0,0,52.547,44v-3.39H57.3c2.416,0,4.6-.273,4.6-3.637,0-2.052-3.364-3.338-4.378-3.676ZM14.955,43.069H13.123V37.613h1.832Zm35.722,0H48.845V37.613h1.832ZM57.3,38.743H52.547V36.678a.931.931,0,0,0-.935-.935h-3.7a.931.931,0,0,0-.935.935v2.065H16.825V36.678a.931.931,0,0,0-.935-.935h-3.7a.931.931,0,0,0-.935.935v2.065H6.5c-2.611,0-2.728-.39-2.728-1.767,0-.39,1.442-1.351,3.144-1.922L31.906,26.13l25.005,8.937c1.65.546,3.118,1.533,3.118,1.91,0,1.377-.117,1.767-2.728,1.767Z" transform="translate(-1.9 -12.53)" fill="#323536"/>
</svg>
