<svg xmlns="http://www.w3.org/2000/svg" width="95.773" height="100" viewBox="0 0 95.773 100">
  <path id="staiy__female" d="M105.5,105.477v-.551s-.031-.306-.063-.459a5.879,5.879,0,0,0-.094-.734l-.063-.337a3.47,3.47,0,0,0-.094-.459,1.6,1.6,0,0,0-.125-.49,2.612,2.612,0,0,0-.157-.581l-.094-.367-.094-.275q-.188-.6-.471-1.285v-.092a4.1,4.1,0,0,1-.314-.643,8.51,8.51,0,0,0-.6-1.193c-.063-.153-.157-.306-.251-.49l-.063-.122a4.845,4.845,0,0,0-.408-.673,5.838,5.838,0,0,0-.439-.643,4.686,4.686,0,0,0-.439-.643,6,6,0,0,0-.5-.673,27.152,27.152,0,0,0-3.294-3.519c-.251-.245-.533-.459-.816-.7l-.22-.184c-.659-.551-1.318-1.04-2.008-1.53-.063-.031-.125-.092-.157-.092a42.179,42.179,0,0,0-3.89-2.417,288.367,288.367,0,0,0-1.286-32.834C87.5,33.353,83.1,19.859,76.548,13.341A14.846,14.846,0,0,0,65.82,8.69a17.392,17.392,0,0,0-9.976,2.754,11.888,11.888,0,0,0-5.27-1.163c-2.1,0-6.305.7-10.854,5.355-4.768,4.9-8.376,12.576-10.729,22.8-2.855,12.3-3.8,28.091-2.823,46.94-.439.214-.91.428-1.318.673-13.175,7.1-15.12,15.881-15.12,20.5a2.04,2.04,0,0,0,4.078,0c0-3.733,1.694-10.955,13.019-17.044.659-.337,1.38-.7,2.2-1.071a.221.221,0,0,0,.125-.061c1.631-.7,3.451-1.377,5.239-2.05,1.537-.581,3.106-1.163,4.643-1.775a30.365,30.365,0,0,0,18.6,6.4,28.043,28.043,0,0,0,3.2-.184,1.919,1.919,0,0,0,1.349-.734,1.884,1.884,0,0,0,.439-1.469,1.975,1.975,0,0,0-.753-1.346,2.077,2.077,0,0,0-1.506-.428,27.3,27.3,0,0,1-2.761.153,25.84,25.84,0,0,1-14.43-4.376c4.549-2.479,6.65-5.263,6.65-8.69V71.236a16.414,16.414,0,0,0,7.811,2.081c4.36,0,8.815-1.989,12.579-5.6a26.4,26.4,0,0,0,7.215-12.7c1.443-.581,5.176-2.693,5.176-9.241a11.043,11.043,0,0,0-.565-3.672,4.489,4.489,0,0,0-4.266-2.968h-.408c-2.008.184-4.109.275-6.18.275a74.331,74.331,0,0,1-22.085-3.3c-1.757-2.907-2.447-9.088-2.572-11.23a2.015,2.015,0,0,0-1.067-1.652,2.044,2.044,0,0,0-2.008.061c-5.615,3.274-5.9,13.311-5.9,14.443a1.5,1.5,0,0,1-.22.734c-.125.245-.345.551-1.161.551a1.863,1.863,0,0,0-1.192.4c-.376.275-2.353,1.9-2.353,6.4,0,6.548,3.733,8.66,5.176,9.241a26.636,26.636,0,0,0,7.215,12.729c.251.214.471.459.722.673v5.508c0,2.326-2.2,4.345-7.09,6.487a.361.361,0,0,0-.188.092c-1.757.765-3.67,1.469-5.553,2.173l-.157.061q-1.365.5-2.635,1.01c-2.008-43.543,6.964-59.608,12.517-65.33,3.608-3.733,6.713-4.131,7.874-4.131a6.818,6.818,0,0,1,4.078,1.1,2.007,2.007,0,0,0,1.349.52H56a1.838,1.838,0,0,0,1.38-.643c.094-.092,2.6-2.57,8.344-2.57a10.823,10.823,0,0,1,7.843,3.458c5.8,5.753,9.913,18.819,11.858,37.76a287.013,287.013,0,0,1,1.255,33.6v1.622c-.031.367-.031.673-.031.949A29.444,29.444,0,0,1,69.4,102.539V74.694a2.04,2.04,0,0,0-4.078,0v30.355a1.927,1.927,0,0,0,.753,1.53,2.065,2.065,0,0,0,1.694.4c9.882-2.05,17.5-7.191,22.618-15.269a1.751,1.751,0,0,0,.282-.765q.941.6,1.788,1.193c.157.092.314.245.5.367l.314.245c.22.184.439.337.69.52q.282.229.659.551a24.286,24.286,0,0,1,3.294,3.4c.125.184.251.337.345.49,0,.031.063.092.094.122a4.475,4.475,0,0,1,.282.4c.031.061.094.122.125.184a3.818,3.818,0,0,1,.251.367c0,.031.063.092.094.122a2.646,2.646,0,0,1,.251.428l.125.214.125.245c0,.061.063.122.094.184a7.246,7.246,0,0,1,.408.857c0,.061.063.122.063.153a1.776,1.776,0,0,1,.157.4v.092a4.96,4.96,0,0,1,.376.979l.125.459v.122l.125.367v.153a.875.875,0,0,0,.063.275v.153a1.833,1.833,0,0,1,.094.428v.122l.063.122c.063.428.094.826.125,1.224v.826a2.04,2.04,0,0,0,4.078,0c0-.306,0-.643-.031-1.071ZM41.571,53.09A1.912,1.912,0,0,0,39.783,51.5c-.314-.031-3.074-.581-3.074-5.661a6.164,6.164,0,0,1,.565-2.907,5.139,5.139,0,0,0,4.36-5.08,23.219,23.219,0,0,1,1.443-7.711c.5,3.029,1.443,6.64,3.106,8.874a2.166,2.166,0,0,0,.941.7,77.159,77.159,0,0,0,24.124,3.733c2.2,0,4.423-.092,6.556-.275a.407.407,0,0,1,.439.275,7.557,7.557,0,0,1,.345,2.387c0,5.08-2.761,5.63-3.043,5.661a1.981,1.981,0,0,0-1.819,1.591C71.78,63.158,63.875,69.4,57.663,69.4S43.547,63.158,41.6,53.09Zm60.042,50.673Z" transform="translate(-9.73 -8.69)" fill="#323536"/>
</svg>
