<svg xmlns="http://www.w3.org/2000/svg" width="100.092" height="100" viewBox="0 0 100.092 100">
  <path id="staiy__male" d="M106.821,93.53c-2.176-4.536-6.558-7.57-13.362-9.194-12.688-3.065-19.951-7.416-19.951-11.922V66.653A24.745,24.745,0,0,0,79.3,55.16c1.5-.552,5.394-2.636,5.394-9.286a10.362,10.362,0,0,0-.95-4.566,33.774,33.774,0,0,0,.95-9.531,24.29,24.29,0,0,0-2.789-11.492,10.155,10.155,0,0,0,1.134-6.834,1.968,1.968,0,0,0-2.176-1.563,31.031,31.031,0,0,1-10.451-.95A29.789,29.789,0,0,0,58.675,8.7c-4.842,0-8.612.644-11.523,1.992A14.132,14.132,0,0,0,41.36,15.5a16.114,16.114,0,0,0-8.673,14.4c0,7.11,0,8.7.95,11.462a9.819,9.819,0,0,0-.95,4.536c0,6.65,3.892,8.734,5.394,9.286a25.035,25.035,0,0,0,5.792,11.492v5.762c0,4.505-7.263,8.857-19.951,11.922-6.8,1.655-11.155,4.658-13.362,9.194-1.9,3.984-1.9,8.581-1.9,13.147a1.988,1.988,0,0,0,1.992,1.992,2.01,2.01,0,0,0,1.992-2.084c0-8.612,0-15.446,12.228-18.388a80.445,80.445,0,0,0,10.052-3.1A32.32,32.32,0,0,0,58.706,95.89,32.37,32.37,0,0,0,82.488,85.133a71.345,71.345,0,0,0,10.052,3.1c12.228,2.942,12.228,9.776,12.228,18.48a1.988,1.988,0,0,0,1.992,1.992,2.01,2.01,0,0,0,1.992-2.084c0-4.474,0-9.071-1.931-13.055ZM43.475,18.875a2.14,2.14,0,0,0,.919-.736c1.931-2.881,5.026-5.516,14.373-5.516A26.627,26.627,0,0,1,69.1,14.615a1.315,1.315,0,0,0,.429.123,35.448,35.448,0,0,0,9.776,1.2,5.51,5.51,0,0,1-1.226,3.034,1.983,1.983,0,0,0-.061,2.482c1.931,2.513,2.789,7.11,2.789,10.3a38.227,38.227,0,0,1-.429,6.957,12.381,12.381,0,0,1-1.931-3.034c-1.839-3.463-4.352-8.213-11.063-8.213a20.27,20.27,0,0,0-3.218.368c-4.26.644-10.757,1.624-15.2-2.6a1.975,1.975,0,0,0-3.187.7c-2.7,6.5-5.394,10.389-8.7,12.534-.306-1.532-.306-3.586-.306-8.581,0-5.424,3.4-9.623,6.742-10.971ZM41.789,53.107a2.018,2.018,0,0,0-1.747-1.594,3.443,3.443,0,0,1-1.5-.7c-1.2-.95-1.808-2.6-1.808-4.965a5,5,0,0,1,.766-3.157c4.321-2.115,7.754-6.221,10.849-12.933,5.578,3.586,12.32,2.574,16.427,1.931a24.545,24.545,0,0,1,2.6-.306c4.291,0,5.792,2.819,7.539,6.1,1.287,2.421,2.6,4.9,5.271,5.424a5.79,5.79,0,0,1,.613,2.911c0,5.087-2.973,5.639-3.279,5.67a1.952,1.952,0,0,0-1.778,1.594c-.889,4.444-3.065,10.389-8.367,13.423-.582.337-1.042.674-1.563,1.011-1.532,1.073-2.758,1.931-7.049,1.931s-5.516-.858-7.049-1.931A15.519,15.519,0,0,0,50.156,66.5c-5.3-3.065-7.478-8.979-8.367-13.423ZM58.767,91.875a28.247,28.247,0,0,1-19.92-8.52c6.037-3.1,9.1-6.773,9.1-10.972V69.809s.153.092.215.123q.69.414,1.287.827c1.869,1.287,3.77,2.636,9.317,2.636s7.478-1.348,9.378-2.666c.4-.276.8-.552,1.226-.8l.215-.123v2.574c0,4.2,3.065,7.876,9.1,10.972a28.371,28.371,0,0,1-19.951,8.52Z" transform="translate(-8.66 -8.7)" fill="#323536"/>
</svg>
