<svg xmlns="http://www.w3.org/2000/svg" width="136.052" height="100" viewBox="0 0 136.052 100">
  <g id="staiy__unisex" transform="translate(-2.71 -8.93)">
    <path id="Pfad_573" data-name="Pfad 573" d="M62.4,69.019a20.071,20.071,0,0,0-7.963-7.309A40.311,40.311,0,0,0,49.306,59.5c-4.106-1.555-8.367-3.173-8.367-5.941V49.828c.187-.156.342-.342.529-.5a17.076,17.076,0,0,0,4.572-8.336c1.431-.529,3.3-2.146,3.3-5.879a6.648,6.648,0,0,0-.467-2.613,2.615,2.615,0,0,0-2.084-1.617c-2.333-.311-4.168-2.924-5.941-5.443-1.835-2.582-3.546-5.008-5.941-5.008a5.189,5.189,0,0,0-3.017.778,6.168,6.168,0,0,0-3.017-.778,3.022,3.022,0,0,0-2.644,1.711,14.572,14.572,0,0,0-1.089,2.986c-.933,3.2-1.835,5.474-4.635,5.754A2.673,2.673,0,0,0,18.3,32.534a7.113,7.113,0,0,0-.435,2.582c0,3.733,1.866,5.35,3.3,5.879a17.076,17.076,0,0,0,4.572,8.336c.187.156.342.342.529.5v3.733c0,2.768-4.261,4.386-8.367,5.941a40.312,40.312,0,0,0-5.132,2.208c-8.3,4.6-9.549,10.264-9.549,13.25a1.042,1.042,0,0,0,2.084,0c0-2.519,1.089-7.341,8.46-11.415a39.014,39.014,0,0,1,4.883-2.084c.249-.093.529-.187.809-.311a15.938,15.938,0,0,0,22.426,6.221,15.734,15.734,0,0,0,5.879-6.221,8.625,8.625,0,0,0,.809.311,39.014,39.014,0,0,1,4.883,2.084,17.572,17.572,0,0,1,7.092,6.439A11.164,11.164,0,0,1,61.686,73c.062-.031.093-.062.156-.093.56-.342,1.151-.622,1.742-.933A13.3,13.3,0,0,0,62.4,69.019ZM23.086,39.937a1.055,1.055,0,0,0-.933-.871c-.28-.031-2.177-.435-2.177-3.95a4.994,4.994,0,0,1,.28-1.8.551.551,0,0,1,.435-.342c4.448-.435,5.6-4.355,6.439-7.247.591-1.991,1-3.2,1.742-3.2a4.246,4.246,0,0,1,2.488.809.959.959,0,0,0,.933.28.861.861,0,0,0,.653-.56c.124-.124.591-.529,1.96-.529s2.8,2.115,4.23,4.137c1.928,2.737,4.137,5.848,7.372,6.314a.643.643,0,0,1,.435.311,5.322,5.322,0,0,1,.28,1.835c0,3.515-1.9,3.919-2.177,3.95a1.055,1.055,0,0,0-.933.871C42.868,46.655,37.673,50.823,33.6,50.823S24.33,46.655,23.086,39.937ZM33.6,67.62a13.821,13.821,0,0,1-12.193-7.247c3.639-1.524,6.936-3.453,6.936-6.812V51.383a9.661,9.661,0,0,0,10.513,0v2.177c0,3.359,3.3,5.288,6.936,6.812A13.882,13.882,0,0,1,33.6,67.62ZM54.221,37.7a8.713,8.713,0,0,1-.249-3.764,18.512,18.512,0,0,0-.218-5.35,13,13,0,0,0-3.639-5.972c-.529-.622-1.026-1.182-1.462-1.742A18.941,18.941,0,0,1,47.6,18.848c-1.462-3.11-3.67-7.838-9.8-7.838a10.139,10.139,0,0,0-6.439,1.866,6.914,6.914,0,0,0-3.017-.84c-5.63,0-7.527,4.137-8.771,6.843a14.437,14.437,0,0,1-1.026,1.991c-.435.56-.933,1.12-1.462,1.742a13,13,0,0,0-3.639,5.972,18.512,18.512,0,0,0-.218,5.35,8.713,8.713,0,0,1-.249,3.764c-.778,1.742-2.426,5.381-2.426,8.958a6.608,6.608,0,0,0,1.462,4.261,6.008,6.008,0,0,0,4.759,2.022c3.733,0,5.226-.684,5.381-.778l-.933-1.866a12.792,12.792,0,0,1-4.448.529c-3.2,0-4.137-2.146-4.137-4.168,0-3.11,1.524-6.47,2.271-8.087a10.679,10.679,0,0,0,.4-4.759A16.347,16.347,0,0,1,15.5,29.05a11.454,11.454,0,0,1,3.11-5.039,18.328,18.328,0,0,0,1.617-1.928,14.417,14.417,0,0,0,1.244-2.3c1.213-2.644,2.613-5.63,6.874-5.63a5.666,5.666,0,0,1,2.582.871,1.057,1.057,0,0,0,1.4-.218c.062-.062,1.462-1.711,5.474-1.711,4.821,0,6.532,3.7,7.9,6.656a12.266,12.266,0,0,0,1.275,2.333,18.328,18.328,0,0,0,1.617,1.928A11.454,11.454,0,0,1,51.7,29.05a16.346,16.346,0,0,1,.187,4.759,10.679,10.679,0,0,0,.4,4.759c.746,1.617,2.271,4.977,2.271,8.087a3.859,3.859,0,0,1-4.137,4.168,12.792,12.792,0,0,1-4.448-.529l-.933,1.866a13.834,13.834,0,0,0,5.381.778,6.008,6.008,0,0,0,4.759-2.022,6.608,6.608,0,0,0,1.462-4.261c0-3.577-1.649-7.216-2.426-8.958Z" transform="translate(0 4.39)" fill="#323536" stroke="#323536" stroke-linecap="round" stroke-linejoin="round" stroke-width="1"/>
    <path id="Pfad_574" data-name="Pfad 574" d="M100.031,85.384c-.311-4.106-2.768-7.652-7.185-10.3a23.02,23.02,0,0,0-10.482-3.266,1.617,1.617,0,0,0,0,3.235c3.515,0,14.526,3.39,14.526,11.291,0,2.146-2.053,3.764-4.852,5.257V91.17a1.6,1.6,0,0,0-1.617-1.586,1.573,1.573,0,0,0-1.586,1.586v2.022c-.373.156-.715.311-1.089.5a51.062,51.062,0,0,0-7.216,3.733A30.822,30.822,0,0,1,86.75,89.3c2.053-2.053,3.639-3.639,3.639-5.816a1.551,1.551,0,0,0-.84-1.369c0-.031-.093-.093-.156-.124a30.117,30.117,0,0,1-6.874-3.764c-1.96-1.524-3.359-3.359-3.359-5.443v-6a25.218,25.218,0,0,0,5.879-11.7c2.333-.778,5.381-3.235,5.381-9.051,0-.435,0-.871-.031-1.275a3.992,3.992,0,0,0-.529-1.586A8.827,8.827,0,0,0,91.975,40a7.422,7.422,0,0,0-.529-4.914,4.745,4.745,0,0,0,1.213-3.608,4.585,4.585,0,0,0-1.586-3.048,4.55,4.55,0,0,0,.249-3.079,4.439,4.439,0,0,0-2.084-2.644,5.147,5.147,0,0,0-4.914-5.816,5.531,5.531,0,0,0-2.084-2.955,5.671,5.671,0,0,0-3.577-.9,5,5,0,0,0-2.4-2.271,4.812,4.812,0,0,0-3.359-.124A4.965,4.965,0,0,0,70.3,9.117a4.853,4.853,0,0,0-3.173.529,4.685,4.685,0,0,0-4.977,0,5.089,5.089,0,0,0-3.173-.529,5.175,5.175,0,0,0-2.644,1.524A4.732,4.732,0,0,0,53,10.765a4.865,4.865,0,0,0-2.4,2.271,5.671,5.671,0,0,0-3.577.9,5.531,5.531,0,0,0-2.084,2.955,5.147,5.147,0,0,0-4.914,5.816,4.439,4.439,0,0,0-2.084,2.644,4.374,4.374,0,0,0,.249,3.079,4.585,4.585,0,0,0-1.586,3.048,4.745,4.745,0,0,0,1.213,3.608A7.058,7.058,0,0,0,37.294,40a8.827,8.827,0,0,0,2.115,3.173,3.992,3.992,0,0,0-.529,1.586c-.031.4-.062.84-.062,1.275,0,5.816,3.079,8.274,5.412,9.051a24.929,24.929,0,0,0,5.879,11.7v6c0,4.168-5.568,7.309-10.233,9.207h-.031s-.093.093-.124.093a1.636,1.636,0,0,0-.84,1.4c0,2.177,1.586,3.764,3.608,5.816a30.849,30.849,0,0,1,6.252,8.118,52.806,52.806,0,0,0-7.216-3.733c-.373-.187-.715-.342-1.089-.5V91.17a1.6,1.6,0,0,0-1.617-1.586,1.573,1.573,0,0,0-1.586,1.586V91.6c-2.8-1.493-4.852-3.11-4.852-5.257,0-4.106,2.955-6.843,5.537-8.4.062-.031.093-.062.156-.093.56-.342,1.151-.622,1.742-.933a19.486,19.486,0,0,1,7.092-1.866,1.618,1.618,0,0,0,0-3.235,21.349,21.349,0,0,0-8.274,2.146,17.756,17.756,0,0,0-1.866.964c-3.795,2.177-7.123,5.6-7.527,10.451C14.65,92.818,14.65,99.879,14.65,107.313a1.606,1.606,0,0,0,1.617,1.617,1.58,1.58,0,0,0,1.586-1.617c0-6.781.062-12.193,11.82-18.507,1.12,2.83,4.137,4.759,7.558,6.407v12.1a1.6,1.6,0,0,0,1.586,1.617,1.626,1.626,0,0,0,1.617-1.617V96.737c5.6,2.551,11.291,5.226,11.291,10.575a1.617,1.617,0,1,0,3.235,0,10.21,10.21,0,0,0-.653-3.484c-.031-.031,0-.062,0-.093-1.8-8.989-6.439-13.624-9.518-16.7a19.085,19.085,0,0,1-2.333-2.644,31.643,31.643,0,0,0,5.661-3.173A18.671,18.671,0,0,0,75.179,87.9a18.329,18.329,0,0,0,5.941-6.687,33.14,33.14,0,0,0,5.692,3.173,21.434,21.434,0,0,1-2.333,2.644c-3.079,3.079-7.714,7.714-9.518,16.7v.093a10.21,10.21,0,0,0-.653,3.484,1.617,1.617,0,1,0,3.235,0c0-5.35,5.692-8.025,11.291-10.575v10.575a1.6,1.6,0,0,0,1.586,1.617,1.626,1.626,0,0,0,1.617-1.617v-12.1c3.421-1.649,6.407-3.577,7.558-6.407,11.757,6.314,11.788,11.726,11.788,18.507a1.617,1.617,0,1,0,3.235,0c0-7.434,0-14.463-14.588-21.928ZM40.373,38.977a4.266,4.266,0,0,1,.746-3.142c.062-.093.062-.187.124-.249l.093-.093a.706.706,0,0,0,.031-.124c.031-.093.062-.218.093-.311a.959.959,0,0,0,.031-.311.861.861,0,0,0-.031-.28.92.92,0,0,0-.062-.311,1.091,1.091,0,0,0-.156-.249l-.187-.28A.447.447,0,0,0,41,33.533l-.187-.093a.851.851,0,0,0-.156-.124,1.583,1.583,0,0,1-.84-1.524A1.5,1.5,0,0,1,40.9,30.454c.062,0,.062-.062.124-.062a2.87,2.87,0,0,0,.249-.156,1.888,1.888,0,0,0,.311-.218l.093-.093s0-.093.062-.124a.973.973,0,0,0,.156-.311.5.5,0,0,0,.093-.28.959.959,0,0,0,.031-.311,1.167,1.167,0,0,0-.031-.311v-.156a.456.456,0,0,1-.062-.124c-.062-.093-.093-.187-.156-.28a.838.838,0,0,0-.218-.249c-.031-.031-.031-.093-.062-.124a1.319,1.319,0,0,1-.435-1.431,1.3,1.3,0,0,1,1.12-.964,2.142,2.142,0,0,1,.249-.093c.062-.031.124,0,.187-.031.031-.031.031-.062.062-.062a1.71,1.71,0,0,0,.28-.218c.062-.062.156-.093.218-.187a1.736,1.736,0,0,0,.156-.249c.031-.093.093-.187.124-.28v-.28a1.4,1.4,0,0,0,.031-.342v-.093a.964.964,0,0,1-.062-.218c-.031-.062-.031-.156-.062-.218a2.047,2.047,0,0,1,2.426-2.83c.093.031.156,0,.218.031.093,0,.156.031.249.031h.124s.218-.062.342-.093a.989.989,0,0,0,.28-.093,1.091,1.091,0,0,0,.249-.156c.062-.093.156-.124.218-.218.062-.062.093-.156.156-.218a2.877,2.877,0,0,0,.156-.311c0-.031.031-.031.031-.062.031-.093,0-.156.031-.249,0-.093.031-.187.031-.28a2.169,2.169,0,0,1,.964-1.928,2.211,2.211,0,0,1,2.146-.218c.093.031.187.031.249.062a.732.732,0,0,0,.249.062h.156a1.677,1.677,0,0,0,1.089-.4c.062-.062.062-.124.124-.156a2.374,2.374,0,0,0,.249-.342l.031-.062v-.187l.093-.28a1.614,1.614,0,0,1,2.613-1.12c.062.062.156.062.218.124.093,0,.156.093.218.124h.093s.156.031.249.062h.311a1.439,1.439,0,0,0,.778-.249l.124-.124a2.369,2.369,0,0,0,.28-.218,2.091,2.091,0,0,0,.187-.373s.062,0,.062-.093a1.518,1.518,0,0,1,1.151-.964,1.623,1.623,0,0,1,1.462.5c.031.031.062.031.093.062,0,.031.062.093.093.124.062.031.124.031.156.062a.973.973,0,0,0,.311.156.908.908,0,0,0,.28.062,1.058,1.058,0,0,0,.311.031c.093,0,.187-.031.311-.031l.28-.093.28-.187a.2.2,0,0,0,.156-.093l.093-.093.093-.093a1.392,1.392,0,0,1,1.151-.529,1.427,1.427,0,0,1,1.151.529c0,.031.062.031.093.062a.429.429,0,0,0,.093.124c.062.093.156.093.249.156a.5.5,0,0,0,.218.124,2.591,2.591,0,0,0,.467.124,1.348,1.348,0,0,0,.156.031h.031a1.1,1.1,0,0,1,.187-.031l.373-.093a1.843,1.843,0,0,1,.187-.124c.062-.031.156-.062.218-.093.031,0,.031-.093.093-.124.031-.031.062-.031.093-.062a1.558,1.558,0,0,1,2.613.467c0,.062.062.062.062.093a2.09,2.09,0,0,0,.187.373.969.969,0,0,0,.28.218c.031.031.062.093.124.124a1.76,1.76,0,0,0,.778.249h.311c.093-.031.187-.031.249-.062h.093a1.842,1.842,0,0,1,.187-.124c.093-.062.156-.062.249-.124a1.583,1.583,0,0,1,1.649-.218,1.63,1.63,0,0,1,.964,1.337l.093.28a.547.547,0,0,0,.031.187v.062s.156.218.249.342c.031.031.062.093.124.156a2.438,2.438,0,0,0,.467.311h.031a1.811,1.811,0,0,0,.591.093h.156s.156-.031.249-.062a.418.418,0,0,0,.249-.062,2.237,2.237,0,0,1,3.11,2.146c0,.093.031.187.031.28.031.093,0,.156.031.249,0,.031.031.031.031.062a2.876,2.876,0,0,0,.156.311c.062.062.093.156.156.218.062.093.156.124.218.218a1.091,1.091,0,0,0,.249.156.988.988,0,0,0,.28.093,1.913,1.913,0,0,1,.342.093h.124a1.675,1.675,0,0,1,.249-.031c.062-.031.124,0,.218-.031a2.047,2.047,0,0,1,2.426,2.83c-.031.062-.031.156-.062.218a.45.45,0,0,0-.062.218v.435c.031.093.031.187.062.28,0,.093.093.187.124.28a1.736,1.736,0,0,0,.156.249c.062.093.156.124.218.187a1.709,1.709,0,0,0,.28.218s0,.031.062.062.124,0,.187.031c.093,0,.156.062.249.093a1.328,1.328,0,0,1,1.12,1,1.342,1.342,0,0,1-.435,1.4c-.031.031-.031.093-.093.124a1.725,1.725,0,0,0-.187.249,1.26,1.26,0,0,0-.156.28c0,.031-.062.062-.062.124-.031.062,0,.093-.031.156,0,.124-.031.218-.031.342.031.093.031.187.062.28a.908.908,0,0,0,.062.28,2.89,2.89,0,0,0,.156.311c.031.031.062.093.093.124l.093.093s.218.156.311.218a1.091,1.091,0,0,0,.249.156c.062,0,.062.031.124.062a1.5,1.5,0,0,1,1.089,1.337,1.583,1.583,0,0,1-.84,1.524c-.062.031-.093.093-.156.124l-.187.093a.447.447,0,0,1-.062.093,1.461,1.461,0,0,0-.187.28,1.091,1.091,0,0,0-.156.249.92.92,0,0,0-.062.311v.591a1.185,1.185,0,0,0,.093.311.187.187,0,0,0,.031.124l.093.093a1.691,1.691,0,0,0,.124.249,4.267,4.267,0,0,1,.747,3.142A4.12,4.12,0,0,1,87,41.185a4.016,4.016,0,0,0-1.493,0h-.031c-.435,0-.529-.093-.653-.435a13.4,13.4,0,0,1-.373-3.173,19.159,19.159,0,0,0-1.182-6.719c-2.146-4.914-8.46-7.4-18.725-7.4s-16.579,2.488-18.725,7.4a19.159,19.159,0,0,0-1.182,6.719,13.4,13.4,0,0,1-.373,3.173c-.156.342-.218.435-.653.435h-.031a3.6,3.6,0,0,0-1.524.031,4.436,4.436,0,0,1-1.773-2.239Zm6.781,14.432a1.588,1.588,0,0,0-1.431-1.275,3.866,3.866,0,0,1-1.711-.809c-1.306-1.026-1.96-2.8-1.96-5.288a9.42,9.42,0,0,1,.062-.964.7.7,0,0,1,.311-.56.686.686,0,0,1,.467-.187,1.347,1.347,0,0,1,.156.031,3.015,3.015,0,0,0,.622.062,3.727,3.727,0,0,0,3.7-2.551,15.07,15.07,0,0,0,.591-4.137,15.96,15.96,0,0,1,.9-5.568c1.586-3.577,7.03-5.474,15.77-5.474s14.184,1.9,15.739,5.474a15.982,15.982,0,0,1,.933,5.568,15.07,15.07,0,0,0,.591,4.137,3.727,3.727,0,0,0,3.7,2.551,3.015,3.015,0,0,0,.622-.062.667.667,0,0,1,.622.156.7.7,0,0,1,.311.56,9.422,9.422,0,0,1,.062.964c0,5.443-3.235,6.034-3.67,6.1a1.5,1.5,0,0,0-1.431,1.275c-.933,4.572-3.142,10.638-8.616,13.81-.591.342-1.058.653-1.555,1-1.586,1.12-2.862,1.991-7.309,1.991s-5.723-.871-7.341-1.991a16.218,16.218,0,0,0-1.524-1c-5.474-3.173-7.683-9.238-8.616-13.81ZM64.634,87.966a15.632,15.632,0,0,1-14-8.958,9.135,9.135,0,0,0,2.706-6.221V69.459c.28.187.529.373.809.529.467.28.871.56,1.306.871,1.835,1.275,3.733,2.582,9.176,2.582s7.341-1.306,9.176-2.582c.435-.311.84-.591,1.306-.871.28-.156.529-.342.809-.529v3.328a9.135,9.135,0,0,0,2.706,6.221,15.632,15.632,0,0,1-14,8.958Z" transform="translate(24.143 0)" fill="#323536"/>
  </g>
</svg>
